<svg width="1440" height="298" viewBox="0 0 1440 298" fill="none" xmlns="http://www.w3.org/2000/svg">
<mask id="mask0_33_2777" style="mask-type:luminance" maskUnits="userSpaceOnUse" x="0" y="0" width="313" height="298">
<path d="M312.721 0.00170898H0V298H312.721V0.00170898Z" fill="white"/>
</mask>
<g mask="url(#mask0_33_2777)">
<path fill-rule="evenodd" clip-rule="evenodd" d="M61.655 120.707C61.655 120.707 50.9092 86.3475 62.9555 60.8602C74.9998 35.3749 88.9999 35.4301 94.8859 23.863C88.5125 67.9483 78.506 82.444 61.655 120.707Z" fill="#E6B595"/>
<path fill-rule="evenodd" clip-rule="evenodd" d="M61.1041 139.092C61.1041 139.092 34.5109 130.75 27.8159 108.873C21.119 86.9966 30.4251 79.591 27.6603 69.3306C35.8031 79.6136 42.4776 82.5299 46.4876 90.9923C52.8097 104.341 54.4625 119.582 61.1041 139.092Z" fill="#E6B595"/>
<path fill-rule="evenodd" clip-rule="evenodd" d="M61.0898 139.081C61.0898 139.081 83.6035 147.3 95.6376 129.685C107.672 112.072 108.014 95.4447 113.261 86.8779C102.312 91.019 93.5937 94.6337 87.4394 100.272C77.7278 109.166 72.5341 123.932 61.0898 139.081Z" fill="#E6B595"/>
<path fill-rule="evenodd" clip-rule="evenodd" d="M67.1068 175.991C67.1068 175.991 38.998 176.906 27.1667 158.581C15.3354 140.255 22.6857 130.249 17.5043 121.532C27.9716 128.502 35.2236 129.044 41.1914 135.663C50.6081 146.11 55.894 159.869 67.1068 175.991Z" fill="#E6B595"/>
<path fill-rule="evenodd" clip-rule="evenodd" d="M67.1703 175.978C67.1703 175.978 89.684 184.195 101.718 166.582C113.752 148.967 114.094 132.342 119.341 123.773C108.392 127.912 99.6741 131.53 93.5199 137.169C83.8082 146.061 78.6145 160.827 67.1703 175.978Z" fill="#E6B595"/>
<path fill-rule="evenodd" clip-rule="evenodd" d="M80.3226 205.517C80.3226 205.517 53.2296 216.826 36.7289 204.304C20.2261 191.781 24.6538 179.798 17.238 173.674C29.3171 176.218 36.52 174.016 44.1303 177.912C56.1357 184.056 65.024 194.795 80.3226 205.517Z" fill="#E6B595"/>
<path fill-rule="evenodd" clip-rule="evenodd" d="M80.6339 205.234C80.6339 205.234 97.9805 211.566 107.254 197.994C116.525 184.424 116.787 171.612 120.832 165.011C112.398 168.202 105.681 170.989 100.936 175.331C93.4544 182.184 89.4526 193.56 80.6339 205.234Z" fill="#E6B595"/>
<path fill-rule="evenodd" clip-rule="evenodd" d="M100.827 231.762C100.827 231.762 76.9577 251.287 57.7496 244.965C38.5393 238.645 40.0016 225.947 31.2505 222.642C43.7208 221.055 50.258 216.621 58.665 217.77C71.9258 219.586 83.2349 226.738 100.827 231.762Z" fill="#E6B595"/>
<path fill-rule="evenodd" clip-rule="evenodd" d="M101.067 231.395C101.067 231.395 119.618 231.628 125.45 215.846C131.287 200.063 128.461 187.957 130.841 180.43C123.331 186.198 117.406 191.025 113.797 196.661C108.102 205.551 106.912 217.542 101.067 231.395Z" fill="#E6B595"/>
<path fill-rule="evenodd" clip-rule="evenodd" d="M39.9278 226.59C39.0492 226.228 38.6314 225.224 38.9919 224.346C39.3544 223.467 40.3579 223.049 41.2365 223.41C41.3307 223.449 73.4741 236.896 100.125 230.789C103.17 227.361 124.914 202.377 126.478 185.925C126.568 184.979 127.406 184.285 128.35 184.375C129.296 184.465 129.991 185.303 129.901 186.249C128.109 205.072 102.4 233.41 102.326 233.492L102.322 233.488C102.099 233.738 101.796 233.926 101.444 234.01C73.599 240.681 40.0261 226.629 39.9278 226.59Z" fill="#E6B595"/>
<path fill-rule="evenodd" clip-rule="evenodd" d="M129.442 264.568C130.083 265.271 130.03 266.36 129.327 267.002C128.623 267.643 127.535 267.589 126.894 266.887C126.798 266.782 93.9541 230.74 78.8931 206.274C69.6034 191.185 60.5799 168.921 59.4965 139.255C58.6896 117.155 62.29 90.9472 73.4782 60.5426C73.8059 59.6497 74.7971 59.193 75.688 59.5186C76.581 59.8463 77.0397 60.8375 76.712 61.7284C65.6897 91.6804 62.1405 117.444 62.931 139.133C63.9878 168.087 72.7717 189.778 81.8156 204.468C96.6944 228.628 129.348 264.464 129.442 264.568Z" fill="#E6B595"/>
<path fill-rule="evenodd" clip-rule="evenodd" d="M29.9275 84.0025C29.563 83.1239 29.9787 82.1163 30.8573 81.7518C31.7359 81.3872 32.7435 81.8009 33.1081 82.6816C33.1613 82.8086 50.9932 125.87 61.4688 136.882C66.939 133.103 90.8473 115.863 105.421 93.4294C105.939 92.6328 107.002 92.4075 107.799 92.9256C108.595 93.4417 108.821 94.5067 108.304 95.3034C91.3941 121.331 62.3084 140.472 62.2245 140.527L62.2224 140.525C61.5875 140.945 60.7253 140.906 60.1314 140.372C49.2238 130.603 29.9849 84.1356 29.9275 84.0025Z" fill="#E6B595"/>
<path fill-rule="evenodd" clip-rule="evenodd" d="M21.7171 132.243C21.2317 131.428 21.4959 130.371 22.311 129.886C23.1261 129.398 24.1808 129.665 24.6682 130.478C24.7297 130.582 45.8794 166.113 66.9512 174.159C71.9258 170.709 101.143 149.979 108.954 134.031C109.369 133.177 110.4 132.825 111.252 133.24C112.103 133.658 112.456 134.686 112.04 135.538C103.096 153.804 68.2661 177.434 68.1657 177.502C67.7315 177.799 67.1663 177.891 66.6297 177.705C44.1079 169.867 21.7846 132.35 21.7171 132.243Z" fill="#E6B595"/>
<path fill-rule="evenodd" clip-rule="evenodd" d="M24.2934 180.353C23.5786 179.726 23.507 178.641 24.1316 177.926C24.7583 177.211 25.8437 177.139 26.5585 177.764C26.6363 177.834 53.5306 201.582 79.9703 204.382C83.8984 201.857 109.976 184.633 115.36 169.128C115.669 168.231 116.646 167.755 117.543 168.063C118.44 168.37 118.917 169.349 118.61 170.244C112.386 188.164 81.3937 207.552 81.3056 207.608C80.9943 207.804 80.6195 207.902 80.2284 207.864C52.4841 205.25 24.3753 180.422 24.2934 180.353Z" fill="#E6B595"/>
<path fill-rule="evenodd" clip-rule="evenodd" d="M180.091 344.029C180.091 344.029 141.416 404.955 86.145 364.165C118.87 363.837 140.22 351.422 152.361 341.09C158.718 335.679 167.186 326.297 153.481 334.586C101.161 366.225 57.3399 373.631 52.5558 299.686C61.309 301.953 71.2131 305.277 84.7524 305.713C112.357 306.602 143.845 302.127 132.921 298.737C128.492 297.361 93.9111 298.545 82.3337 296.384C37.8553 288.078 50.0388 250.474 66.134 206.156C95.7727 244.177 131.969 237.205 131.969 237.205C109.201 234.328 68.4728 193.159 85.3238 167.041C97.6958 147.863 113.723 131.408 133.739 120.041C186.444 117.784 195.017 160.518 179.364 201.439C179.364 201.439 194.267 187.363 198.05 146.139C270.043 203.524 263.893 220.698 205.748 277.229C189.35 293.173 204.704 309.459 223.076 290.558C234.643 278.657 252.656 245.055 258.81 220.328C285.54 269.338 294.588 323.672 264.559 351.727C235.706 378.679 184.742 349.161 180.091 344.029Z" fill="#43745F"/>
<path fill-rule="evenodd" clip-rule="evenodd" d="M131.944 120.291C131.76 119.001 132.659 117.807 133.949 117.623C135.24 117.438 136.434 118.337 136.618 119.626C136.729 120.385 174.711 384.581 217.051 416.057C218.098 416.831 218.317 418.308 217.541 419.352C216.767 420.399 215.29 420.616 214.245 419.842C170.301 387.182 132.053 121.059 131.944 120.291Z" fill="#548E77"/>
<path fill-rule="evenodd" clip-rule="evenodd" d="M104.157 169.537C103.901 168.71 104.368 167.829 105.198 167.576C106.025 167.32 106.906 167.786 107.16 168.616C117.287 201.562 152.771 217.803 152.873 217.85C153.661 218.218 154.003 219.154 153.637 219.941C153.268 220.731 152.332 221.073 151.544 220.705C151.437 220.656 114.704 203.846 104.157 169.537Z" fill="#548E77"/>
<path fill-rule="evenodd" clip-rule="evenodd" d="M214.942 183.062C215.251 182.251 216.16 181.848 216.967 182.157C217.778 182.466 218.182 183.376 217.872 184.183C203.586 221.362 161.272 260.198 161.151 260.313C160.516 260.901 159.523 260.864 158.935 260.227C158.347 259.59 158.384 258.599 159.021 258.011C159.142 257.898 200.925 219.548 214.942 183.062Z" fill="#548E77"/>
<path fill-rule="evenodd" clip-rule="evenodd" d="M67.5123 252.543C66.7648 252.1 66.517 251.136 66.9573 250.388C67.3997 249.641 68.3663 249.393 69.1118 249.833C102.048 269.332 161.745 272.658 161.917 272.664C162.785 272.715 163.445 273.461 163.396 274.329C163.344 275.196 162.599 275.857 161.733 275.806C161.559 275.796 101.106 272.431 67.5123 252.543Z" fill="#548E77"/>
<path fill-rule="evenodd" clip-rule="evenodd" d="M267.61 280.201C268.038 279.447 268.999 279.183 269.752 279.611C270.506 280.039 270.772 281 270.342 281.753C262.216 296.063 249.401 306.549 236.104 313.626C218.032 323.244 198.941 326.576 189.469 324.667L173.509 321.448C172.659 321.278 172.108 320.45 172.278 319.603C172.448 318.753 173.273 318.2 174.123 318.37L190.083 321.589C198.998 323.387 217.197 320.131 234.623 310.858C247.46 304.023 259.809 293.935 267.61 280.201Z" fill="#548E77"/>
<path fill-rule="evenodd" clip-rule="evenodd" d="M74.5697 333.578C73.7649 333.252 73.3758 332.335 73.7014 331.528C74.0291 330.723 74.9466 330.334 75.7514 330.662C83.1693 333.664 94.3678 334.549 106.549 332.736C117.357 331.127 128.893 327.387 139.211 321.114C161.188 307.749 165.698 296.546 165.71 296.513C166.042 295.711 166.963 295.332 167.766 295.665C168.569 295.997 168.948 296.917 168.616 297.722C168.6 297.757 163.707 309.895 140.847 323.795C130.138 330.307 118.188 334.182 107.004 335.849C94.2756 337.746 82.4791 336.779 74.5697 333.578Z" fill="#548E77"/>
</g>
<mask id="mask1_33_2777" style="mask-type:luminance" maskUnits="userSpaceOnUse" x="1128" y="12" width="312" height="286">
<path d="M1439.56 12.1729H1128V298H1439.56V12.1729Z" fill="white"/>
</mask>
<g mask="url(#mask1_33_2777)">
<path fill-rule="evenodd" clip-rule="evenodd" d="M1379.44 135.573C1379.44 135.573 1396.31 101.497 1389.1 72.7774C1381.89 44.0562 1368.09 41.7051 1364.41 28.5979C1362.63 75.7859 1369.84 92.6655 1379.44 135.573Z" fill="#E6B595"/>
<path fill-rule="evenodd" clip-rule="evenodd" d="M1376.63 154.89C1376.63 154.89 1404.35 150.747 1414.94 129.026C1425.54 107.307 1417.72 97.9617 1422.32 87.7114C1412.42 97.0605 1405.31 98.9591 1399.82 107.116C1391.15 119.984 1386.74 135.635 1376.63 154.89Z" fill="#E6B595"/>
<path fill-rule="evenodd" clip-rule="evenodd" d="M1376.64 154.882C1376.64 154.882 1352.96 159.596 1344.33 139.11C1335.69 118.624 1338.39 101.181 1334.79 91.3159C1344.82 97.5296 1352.75 102.813 1357.78 109.768C1365.72 120.738 1368.14 137.07 1376.64 154.882Z" fill="#E6B595"/>
<path fill-rule="evenodd" clip-rule="evenodd" d="M1363.97 192.434C1363.97 192.434 1391.49 198.232 1406.5 181.108C1421.5 163.987 1416.09 152.258 1422.79 144.035C1411.2 149.522 1403.96 148.838 1396.87 154.734C1385.68 164.036 1377.96 177.51 1363.97 192.434Z" fill="#E6B595"/>
<path fill-rule="evenodd" clip-rule="evenodd" d="M1363.91 192.409C1363.91 192.409 1340.23 197.124 1331.6 176.638C1322.96 156.152 1325.66 138.707 1322.06 128.844C1332.09 135.057 1340.02 140.341 1345.05 147.296C1352.99 158.269 1355.41 174.598 1363.91 192.409Z" fill="#E6B595"/>
<path fill-rule="evenodd" clip-rule="evenodd" d="M1345.56 221.03C1345.56 221.03 1370.18 237.521 1388.72 227.266C1407.27 217.014 1405.09 203.725 1413.52 198.6C1401.15 199.178 1394.46 195.639 1386.25 198.398C1373.31 202.756 1362.59 212.455 1345.56 221.03Z" fill="#E6B595"/>
<path fill-rule="evenodd" clip-rule="evenodd" d="M1345.3 220.682C1345.3 220.682 1327.06 224.315 1320.4 208.529C1313.75 192.743 1315.83 179.302 1313.06 171.702C1320.78 176.49 1326.89 180.56 1330.77 185.917C1336.89 194.373 1338.75 206.958 1345.3 220.682Z" fill="#E6B595"/>
<path fill-rule="evenodd" clip-rule="evenodd" d="M1320.56 244.942C1320.56 244.942 1340.51 269.467 1360.58 266.164C1380.66 262.862 1381.54 249.333 1390.77 247.386C1378.78 243.578 1373.14 237.815 1364.65 237.572C1351.26 237.187 1338.81 242.718 1320.56 244.942Z" fill="#E6B595"/>
<path fill-rule="evenodd" clip-rule="evenodd" d="M1320.39 244.518C1320.39 244.518 1302.08 241.569 1299.22 224.063C1296.35 206.555 1301.35 194.383 1300.38 186.107C1306.72 193.431 1311.68 199.495 1314.2 206.01C1318.19 216.287 1317.17 229.025 1320.39 244.518Z" fill="#E6B595"/>
<path fill-rule="evenodd" clip-rule="evenodd" d="M1380.74 246.573C1381.66 246.35 1382.59 246.917 1382.82 247.838C1383.04 248.76 1382.47 249.69 1381.55 249.915C1381.45 249.94 1345.78 258.857 1319.54 247.079C1319.18 246.919 1318.91 246.653 1318.73 246.335C1317.96 245.024 1298.6 211.882 1300.24 192.336C1300.32 191.385 1301.15 190.679 1302.1 190.759C1303.05 190.834 1303.75 191.668 1303.68 192.616C1302.21 210.149 1319.06 240.027 1321.44 244.156C1346.55 255.115 1380.64 246.595 1380.74 246.573Z" fill="#E6B595"/>
<path fill-rule="evenodd" clip-rule="evenodd" d="M1288.52 277.072C1287.78 277.674 1286.7 277.567 1286.1 276.836C1285.49 276.105 1285.6 275.019 1286.33 274.417C1286.44 274.325 1325.13 242.497 1344.23 219.766C1355.84 205.945 1368.48 184.748 1374.81 154.626C1379.56 132.055 1380.78 104.476 1375.39 71.2415C1375.24 70.3055 1375.88 69.4228 1376.82 69.2754C1377.76 69.1259 1378.64 69.7649 1378.79 70.7029C1384.25 104.395 1383.01 132.389 1378.18 155.324C1371.7 186.12 1358.76 207.816 1346.87 221.974C1327.59 244.93 1288.63 276.977 1288.52 277.072Z" fill="#E6B595"/>
<path fill-rule="evenodd" clip-rule="evenodd" d="M1414.49 100.798C1414.99 99.9871 1416.05 99.7311 1416.86 100.225C1417.67 100.72 1417.92 101.779 1417.43 102.59C1417.35 102.719 1389.91 147.974 1377.41 156.297C1376.69 156.77 1375.76 156.639 1375.2 156.029C1374.05 154.886 1349.75 130.312 1338.12 100.882C1337.77 99.9974 1338.21 98.9959 1339.09 98.6457C1339.98 98.2955 1340.98 98.7296 1341.33 99.6164C1351.56 125.52 1371.87 147.607 1376.65 152.592C1389.01 142.825 1414.42 100.923 1414.49 100.798Z" fill="#E6B595"/>
<path fill-rule="evenodd" clip-rule="evenodd" d="M1414.06 152.24C1414.66 151.507 1415.74 151.402 1416.48 152.004C1417.21 152.607 1417.32 153.69 1416.71 154.423C1416.63 154.525 1387.8 189.886 1364.18 194.208C1363.59 194.314 1363.02 194.111 1362.64 193.714C1362.55 193.626 1332.56 162.926 1327.1 142.319C1326.86 141.402 1327.41 140.46 1328.33 140.218C1329.24 139.976 1330.18 140.525 1330.43 141.445C1335.2 159.463 1360.12 186.108 1364.45 190.644C1386.67 185.823 1413.98 152.338 1414.06 152.24Z" fill="#E6B595"/>
<path fill-rule="evenodd" clip-rule="evenodd" d="M1403.53 201.376C1404.33 200.859 1405.39 201.085 1405.91 201.881C1406.43 202.678 1406.2 203.741 1405.41 204.259C1405.31 204.318 1373.08 225.446 1345.26 223.404C1344.78 223.371 1344.37 223.15 1344.08 222.82C1342.22 221.036 1317.03 196.548 1314.29 177.5C1314.16 176.558 1314.81 175.685 1315.75 175.554C1316.69 175.421 1317.56 176.074 1317.7 177.015C1320.17 194.162 1342.61 216.6 1346.11 220.006C1372.64 221.614 1403.44 201.435 1403.53 201.376Z" fill="#E6B595"/>
<path fill-rule="evenodd" clip-rule="evenodd" d="M1241.96 327.067C1241.96 327.067 1272.28 392.556 1332.44 359.397C1300.04 354.763 1280.51 339.646 1269.84 327.805C1264.25 321.605 1257.09 311.187 1269.59 321.208C1317.28 359.463 1359.75 372.572 1374.23 299.901C1365.25 300.996 1355 302.987 1341.52 301.637C1314.04 298.885 1283.41 290.304 1294.69 288.379C1299.26 287.6 1333.39 293.327 1345.15 292.706C1390.33 290.328 1383.21 251.449 1373.09 205.396C1338.7 239.184 1303.74 227.508 1303.74 227.508C1326.68 227.651 1372.48 192.207 1359.22 164.098C1349.47 143.456 1335.75 125.034 1317.41 111.133C1265.46 101.958 1251.34 143.188 1261.47 185.815C1261.47 185.815 1248.55 169.9 1250.22 128.534C1171.3 175.941 1175.14 193.777 1225.33 257.47C1239.49 275.433 1222.13 289.558 1206.4 268.4C1196.5 255.078 1183.07 219.4 1180.23 194.079C1147.28 239.141 1131.15 291.813 1157.23 323.578C1182.27 354.095 1236.67 331.546 1241.96 327.067Z" fill="#75B59E"/>
<path fill-rule="evenodd" clip-rule="evenodd" d="M1314.6 110.346C1314.96 109.091 1316.26 108.359 1317.51 108.71C1318.77 109.062 1319.5 110.366 1319.15 111.62C1318.94 112.363 1245.98 371.134 1198.13 397.725C1196.99 398.358 1195.55 397.949 1194.92 396.812C1194.29 395.675 1194.7 394.24 1195.83 393.609C1241.96 367.98 1314.39 111.083 1314.6 110.346Z" fill="#548E77"/>
<path fill-rule="evenodd" clip-rule="evenodd" d="M1227.81 162.539C1227.83 161.673 1228.55 160.989 1229.42 161.014C1230.29 161.038 1230.97 161.757 1230.95 162.625C1229.8 201.431 1276.19 237.23 1276.32 237.332C1277 237.867 1277.13 238.852 1276.59 239.536C1276.06 240.218 1275.07 240.341 1274.39 239.806C1274.25 239.702 1226.62 202.944 1227.81 162.539Z" fill="#548E77"/>
<path fill-rule="evenodd" clip-rule="evenodd" d="M1338.65 156.156C1339.11 155.422 1340.08 155.203 1340.82 155.67C1341.55 156.135 1341.77 157.108 1341.31 157.843C1326.86 180.57 1292.13 192.344 1292.03 192.376C1291.21 192.659 1290.31 192.221 1290.03 191.398C1289.75 190.574 1290.19 189.677 1291.01 189.395C1291.11 189.364 1324.8 177.938 1338.65 156.156Z" fill="#548E77"/>
<path fill-rule="evenodd" clip-rule="evenodd" d="M1364.95 248.717C1365.71 248.285 1366.67 248.547 1367.1 249.301C1367.53 250.056 1367.27 251.019 1366.51 251.449C1356.78 257.018 1342.09 259.997 1327.12 261.441C1301.45 263.921 1274.69 261.867 1271.02 260.675C1270.2 260.407 1269.74 259.52 1270.01 258.693C1270.28 257.868 1271.17 257.415 1271.99 257.683C1275.51 258.826 1301.56 260.755 1326.83 258.314C1341.4 256.907 1355.64 254.042 1364.95 248.717Z" fill="#548E77"/>
<path fill-rule="evenodd" clip-rule="evenodd" d="M1163.21 258.496C1163.17 257.628 1163.84 256.897 1164.71 256.858C1165.57 256.821 1166.31 257.493 1166.34 258.359C1166.51 261.947 1166.91 265.337 1167.52 268.536C1170.66 285.026 1179.39 296.227 1189.94 303.186C1200.52 310.161 1212.94 312.893 1223.41 312.416C1225.63 312.314 1227.76 312.066 1229.78 311.683C1251.95 307.456 1251.99 302.395 1251.99 302.379C1252.03 301.512 1252.77 300.847 1253.64 300.89C1254.51 300.933 1255.17 301.672 1255.13 302.539C1255.13 302.561 1254.99 310.079 1230.36 314.773C1228.21 315.183 1225.93 315.447 1223.55 315.556C1212.5 316.059 1199.4 313.176 1188.22 305.809C1177.02 298.422 1167.75 286.554 1164.43 269.115C1163.8 265.787 1163.38 262.25 1163.21 258.496Z" fill="#548E77"/>
<path fill-rule="evenodd" clip-rule="evenodd" d="M1257.36 289.384C1256.83 288.698 1256.96 287.711 1257.65 287.181C1258.33 286.65 1259.32 286.777 1259.85 287.465C1268.13 298.166 1278.28 305.987 1288.75 311.619C1302.35 318.929 1316.49 322.556 1327.87 324.006C1347.11 326.455 1346.94 326.306 1346.94 326.306C1347.26 325.495 1348.17 325.097 1348.98 325.415C1349.79 325.73 1350.19 326.644 1349.87 327.45C1349.87 327.459 1349.17 329.883 1327.48 327.121C1315.78 325.63 1301.24 321.902 1287.27 314.39C1276.44 308.568 1265.95 300.472 1257.36 289.384Z" fill="#548E77"/>
</g>
<path fill-rule="evenodd" clip-rule="evenodd" d="M1115.45 251.287C1115.67 247.687 1112.93 244.586 1109.33 244.365C1105.73 244.144 1102.63 246.882 1102.41 250.48C1102.19 254.081 1104.93 257.179 1108.53 257.402C1112.13 257.626 1115.23 254.887 1115.45 251.287Z" fill="#E6B595"/>
<path fill-rule="evenodd" clip-rule="evenodd" d="M1125.16 216.76C1125.64 208.992 1119.73 202.303 1111.96 201.824C1104.19 201.346 1097.51 207.253 1097.03 215.021C1096.55 222.789 1102.45 229.478 1110.22 229.957C1117.99 230.438 1124.68 224.53 1125.16 216.76Z" fill="#E6B595"/>
<path fill-rule="evenodd" clip-rule="evenodd" d="M1159.27 180.26C1159.5 176.66 1156.76 173.561 1153.16 173.34C1149.56 173.119 1146.46 175.857 1146.24 179.455C1146.02 183.056 1148.75 186.154 1152.35 186.376C1155.95 186.597 1159.05 183.861 1159.27 180.26Z" fill="#E6B595"/>
<path fill-rule="evenodd" clip-rule="evenodd" d="M168.331 82.8514C168.552 79.251 165.814 76.1524 162.216 75.9312C158.616 75.71 155.517 78.4482 155.296 82.0465C155.075 85.6469 157.813 88.7456 161.411 88.9668C165.011 89.1921 168.11 86.4518 168.331 82.8514Z" fill="#E6B595"/>
<path fill-rule="evenodd" clip-rule="evenodd" d="M178.043 48.3263C178.522 40.5562 172.616 33.8695 164.848 33.3903C157.077 32.911 150.391 38.8175 149.911 46.5876C149.432 54.3556 155.339 61.0444 163.109 61.5236C170.875 62.0049 177.564 56.0944 178.043 48.3263Z" fill="#E6B595"/>
<path fill-rule="evenodd" clip-rule="evenodd" d="M302.211 211.945C302.432 208.345 299.694 205.246 296.096 205.025C292.495 204.804 289.397 207.542 289.173 211.14C288.95 214.739 291.691 217.839 295.289 218.061C298.887 218.282 301.988 215.546 302.211 211.945Z" fill="#E6B595"/>
<path fill-rule="evenodd" clip-rule="evenodd" d="M510.815 219.013C492.509 217.608 496.177 249.111 516.968 298.165H682.453C680.863 276.433 685.767 254.819 661.085 249.247C636.406 243.674 629.19 284.253 629.19 284.253C629.19 284.253 623.142 184.801 574.593 179.233C526.046 173.665 552.427 269.931 552.427 269.931C552.427 269.931 531.533 220.603 510.815 219.013Z" fill="#43745F"/>
<path fill-rule="evenodd" clip-rule="evenodd" d="M505.479 219.762C504.31 220.267 503.302 221.006 502.453 221.972C516.483 253.792 528.548 280.887 536.264 298.165H540.268C532.538 280.858 520.092 252.915 505.479 219.762ZM551.221 298.165C540.895 276.483 526.269 242.877 516.74 220.693C518.585 221.574 520.417 222.769 522.218 224.199C531.954 246.836 545.724 278.408 555.142 298.165H551.221ZM573 298.165H576.774C573.019 277.972 561.211 221.557 553.794 186.371C552.711 187.65 551.749 189.067 550.9 190.609C558.279 225.647 569.294 278.337 573 298.165ZM585.094 298.165C582.431 263.519 577.604 207.493 572.33 179.044C573.067 179.083 573.82 179.144 574.595 179.233C575.131 179.294 575.657 179.38 576.181 179.465C581.421 208.355 586.198 263.795 588.84 298.165H585.094ZM608.639 298.165H612.388C611.428 273.631 609.293 233.519 607.671 204.166C606.383 202.006 605.023 199.926 603.581 197.96C605.233 227.643 607.615 271.89 608.639 298.165ZM636.899 298.165H640.924C646.384 282.346 653.457 262.52 658.38 248.817C656.954 248.683 655.587 248.702 654.283 248.867C649.254 262.885 642.252 282.561 636.899 298.165ZM659.713 298.165H663.733C667.809 285.307 672.703 270.771 676.781 258.872C675.96 257.655 675.002 256.518 673.888 255.472C669.541 268.127 664.111 284.216 659.713 298.165Z" fill="#548E77"/>
<path fill-rule="evenodd" clip-rule="evenodd" d="M915.638 219.013C933.944 217.608 930.277 249.111 909.485 298.165H744C745.59 276.433 740.686 254.819 765.368 249.247C790.047 243.674 797.263 284.253 797.263 284.253C797.263 284.253 803.311 184.801 851.86 179.233C900.407 173.665 874.026 269.931 874.026 269.931C874.026 269.931 894.92 220.603 915.638 219.013Z" fill="#43745F"/>
<path fill-rule="evenodd" clip-rule="evenodd" d="M920.974 219.762C922.143 220.267 923.151 221.006 924 221.972C909.971 253.792 897.905 280.887 890.189 298.165H886.186C893.916 280.858 906.361 252.915 920.974 219.762ZM875.232 298.165C885.558 276.483 900.184 242.877 909.713 220.693C907.868 221.574 906.036 222.769 904.236 224.199C894.499 246.836 880.729 278.408 871.311 298.165H875.232ZM853.453 298.165H849.679C853.434 277.972 865.242 221.557 872.659 186.371C873.742 187.65 874.704 189.067 875.553 190.609C868.174 225.647 857.159 278.337 853.453 298.165ZM841.359 298.165C844.022 263.519 848.849 207.493 854.124 179.044C853.386 179.083 852.634 179.144 851.858 179.233C851.322 179.294 850.796 179.38 850.272 179.465C845.032 208.355 840.255 263.795 837.613 298.165H841.359ZM817.814 298.165H814.065C815.025 273.631 817.16 233.519 818.782 204.166C820.07 202.006 821.43 199.926 822.872 197.96C821.22 227.643 818.838 271.89 817.814 298.165ZM789.554 298.165H785.53C780.069 282.346 772.996 262.52 768.073 248.817C769.5 248.683 770.867 248.702 772.17 248.867C777.199 262.885 784.201 282.561 789.554 298.165ZM766.74 298.165H762.72C758.644 285.307 753.75 270.771 749.672 258.872C750.493 257.655 751.452 256.518 752.565 255.472C756.912 268.127 762.342 284.216 766.74 298.165Z" fill="#548E77"/>
<path fill-rule="evenodd" clip-rule="evenodd" d="M746.328 144.832C776.717 66.8052 839.624 138.847 751.771 165.981L746.328 144.832Z" fill="#548E77"/>
<path fill-rule="evenodd" clip-rule="evenodd" d="M677.983 167.778C677.983 167.778 655.967 150.583 645.326 158.802C634.687 167.022 632.721 191.607 689.296 204.031L677.983 167.778Z" fill="#548E77"/>
<path fill-rule="evenodd" clip-rule="evenodd" d="M688.136 215.951C688.136 215.951 644.239 105.685 693.963 78.7744C743.688 51.8637 777.395 110.068 741.706 217.625L688.136 215.951Z" fill="#548E77"/>
<path fill-rule="evenodd" clip-rule="evenodd" d="M784.662 110.109C801.311 114.298 805.886 143.901 763.462 161.751C780.73 149.225 790.91 129.102 784.662 110.109Z" fill="#43745F"/>
<path fill-rule="evenodd" clip-rule="evenodd" d="M785.119 108.289C789.03 109.272 792.346 111.507 794.708 114.609C797.179 117.854 798.594 122.044 798.536 126.727C798.479 131.31 797.006 136.365 793.711 141.445C788.673 149.216 779.329 157.107 764.187 163.477C763.237 163.879 762.139 163.433 761.738 162.479C761.392 161.659 761.674 160.736 762.363 160.234L762.361 160.232C771.038 153.939 777.858 145.687 781.565 136.655C784.971 128.359 785.743 119.39 782.881 110.689C782.562 109.704 783.099 108.646 784.084 108.325C784.432 108.212 784.789 108.204 785.119 108.289ZM791.726 116.887C790.572 115.37 789.126 114.12 787.46 113.204C789.341 121.621 788.293 130.14 785.031 138.081C782.744 143.646 779.375 148.924 775.168 153.676C782.449 149.144 787.437 144.237 790.568 139.404C793.452 134.956 794.742 130.593 794.79 126.682C794.84 122.871 793.704 119.486 791.726 116.887Z" fill="#43745F"/>
<path fill-rule="evenodd" clip-rule="evenodd" d="M677.983 167.778C677.983 167.778 655.967 150.583 645.326 158.802C634.687 167.022 632.721 191.607 689.296 204.031L677.983 167.778Z" fill="#43745F"/>
<path fill-rule="evenodd" clip-rule="evenodd" d="M676.37 168.905C673.241 166.563 655.129 153.595 646.472 160.284C644.796 161.58 643.364 163.339 642.434 165.413C641.158 168.254 640.824 171.706 642.081 175.398C643.391 179.242 646.416 183.359 651.869 187.373C658.952 192.59 670.021 197.561 686.537 201.474L676.37 168.905ZM644.182 157.318C655.611 148.486 677.634 165.144 679.055 166.238C679.385 166.469 679.644 166.806 679.775 167.219L691.064 203.4C691.179 203.718 691.21 204.074 691.131 204.427C690.914 205.441 689.914 206.086 688.9 205.867C670.059 201.729 657.564 196.229 649.652 190.399C643.515 185.882 640.067 181.122 638.527 176.604C636.935 171.933 637.373 167.534 639.011 163.888C640.203 161.225 642.035 158.977 644.182 157.318Z" fill="#43745F"/>
<path fill-rule="evenodd" clip-rule="evenodd" d="M688.136 215.951C688.136 215.951 645.672 109.279 691.594 80.1682C670.365 113.73 686.464 202.574 724.321 217.082L688.136 215.951Z" fill="#43745F"/>
<path fill-rule="evenodd" clip-rule="evenodd" d="M686.389 216.636C686.266 216.325 643.346 108.531 690.586 78.5862C691.462 78.0313 692.623 78.2905 693.178 79.166C693.604 79.838 693.551 80.6752 693.111 81.28C691.629 83.6416 690.331 86.3065 689.215 89.2211C682.495 106.751 682.509 132.836 687.983 156.963C693.434 180.986 704.264 202.96 719.202 212.408C721.062 213.583 722.992 214.564 724.989 215.329C725.96 215.697 726.446 216.784 726.075 217.754C725.766 218.568 724.95 219.04 724.123 218.952L688.084 217.827C687.311 217.805 686.658 217.316 686.391 216.636H686.389ZM686.007 87.1091C654.611 119.121 685.327 203.34 689.438 214.119L716.258 214.958C700.914 204.638 689.864 182.182 684.327 157.782C678.701 132.991 678.73 106.086 685.706 87.8829C685.803 87.6237 685.905 87.3645 686.007 87.1091Z" fill="#43745F"/>
<path fill-rule="evenodd" clip-rule="evenodd" d="M645.051 165.559C646.23 166.115 646.737 167.523 646.179 168.705C645.622 169.884 644.214 170.391 643.034 169.834L634.355 165.712C633.176 165.157 632.669 163.748 633.226 162.567C633.783 161.386 635.194 160.88 636.373 161.436L645.051 165.559Z" fill="#43745F"/>
<path fill-rule="evenodd" clip-rule="evenodd" d="M652.57 159.286C652.718 160.584 651.787 161.757 650.489 161.905C649.189 162.053 648.018 161.119 647.87 159.821L646.778 150.275C646.632 148.977 647.563 147.806 648.861 147.658C650.159 147.51 651.332 148.442 651.48 149.741L652.57 159.286Z" fill="#43745F"/>
<path fill-rule="evenodd" clip-rule="evenodd" d="M648.411 192.437C647.342 193.183 645.873 192.922 645.126 191.853C644.379 190.785 644.641 189.315 645.71 188.568L653.588 183.071C654.655 182.324 656.126 182.585 656.873 183.655C657.62 184.724 657.359 186.193 656.289 186.94L648.411 192.437Z" fill="#43745F"/>
<path fill-rule="evenodd" clip-rule="evenodd" d="M635.772 182.503C634.468 182.61 633.326 181.64 633.219 180.337C633.111 179.033 634.081 177.891 635.384 177.783L644.956 176.967C646.259 176.858 647.402 177.829 647.509 179.133C647.617 180.437 646.647 181.579 645.343 181.686L635.772 182.503Z" fill="#43745F"/>
<path fill-rule="evenodd" clip-rule="evenodd" d="M656.708 174.559C655.535 173.999 655.035 172.589 655.598 171.412C656.161 170.237 657.568 169.74 658.745 170.303L667.404 174.467C668.577 175.03 669.075 176.437 668.514 177.614C667.951 178.789 666.544 179.286 665.367 178.724L656.708 174.559Z" fill="#43745F"/>
<path fill-rule="evenodd" clip-rule="evenodd" d="M675.737 89.9412C674.562 89.3787 674.065 87.9714 674.627 86.7944C675.19 85.6194 676.597 85.1202 677.774 85.6827L686.431 89.8472C687.606 90.4098 688.104 91.8171 687.541 92.996C686.98 94.1691 685.571 94.6683 684.394 94.1057L675.737 89.9412Z" fill="#43745F"/>
<path fill-rule="evenodd" clip-rule="evenodd" d="M704.408 87.6659C703.581 86.6599 703.727 85.17 704.733 84.3444C705.739 83.5149 707.227 83.6609 708.054 84.6669L714.164 92.082C714.991 93.0881 714.845 94.5761 713.839 95.4017C712.833 96.2311 711.345 96.0852 710.518 95.0791L704.408 87.6659Z" fill="#43745F"/>
<path fill-rule="evenodd" clip-rule="evenodd" d="M694.161 128.577C692.877 128.322 692.044 127.076 692.301 125.793C692.556 124.511 693.802 123.678 695.085 123.933L704.506 125.811C705.789 126.066 706.622 127.312 706.367 128.595C706.111 129.879 704.865 130.713 703.583 130.457L694.161 128.577Z" fill="#43745F"/>
<path fill-rule="evenodd" clip-rule="evenodd" d="M663.063 132.944C661.765 132.8 660.83 131.63 660.972 130.334C661.114 129.036 662.283 128.099 663.581 128.243L673.129 129.299C674.427 129.443 675.364 130.613 675.222 131.909C675.078 133.208 673.909 134.144 672.613 134.001L663.063 132.944Z" fill="#43745F"/>
<path fill-rule="evenodd" clip-rule="evenodd" d="M665.244 152.743C663.94 152.846 662.802 151.871 662.7 150.567C662.597 149.264 663.572 148.125 664.874 148.023L674.449 147.244C675.752 147.14 676.891 148.113 676.993 149.419C677.096 150.721 676.123 151.859 674.819 151.963L665.244 152.743Z" fill="#43745F"/>
<path fill-rule="evenodd" clip-rule="evenodd" d="M751.176 85.627C752.351 85.0587 753.766 85.5541 754.33 86.7272C754.899 87.9022 754.403 89.3172 753.23 89.8836L744.579 94.0616C743.404 94.6299 741.988 94.1364 741.424 92.9614C740.856 91.7864 741.349 90.3714 742.524 89.8069L751.176 85.627Z" fill="#43745F"/>
<path fill-rule="evenodd" clip-rule="evenodd" d="M757.698 106.016C758.873 105.449 760.288 105.943 760.854 107.118C761.423 108.293 760.929 109.706 759.754 110.272L751.103 114.448C749.928 115.017 748.513 114.523 747.946 113.348C747.378 112.173 747.871 110.76 749.046 110.192L757.698 106.016Z" fill="#43745F"/>
<path fill-rule="evenodd" clip-rule="evenodd" d="M755.225 173.792C756.502 173.536 757.746 174.366 757.999 175.642C758.255 176.921 757.427 178.163 756.148 178.419L746.731 180.308C745.452 180.563 744.208 179.734 743.954 178.457C743.699 177.18 744.529 175.936 745.805 175.683L755.225 173.792Z" fill="#43745F"/>
<path fill-rule="evenodd" clip-rule="evenodd" d="M750.527 190.799C751.521 189.958 753.015 190.081 753.856 191.079C754.699 192.076 754.576 193.567 753.578 194.408L746.251 200.62C745.252 201.463 743.762 201.34 742.92 200.341C742.079 199.347 742.202 197.853 743.198 197.012L750.527 190.799Z" fill="#43745F"/>
<path fill-rule="evenodd" clip-rule="evenodd" d="M764.174 147.95C765.478 148.054 766.451 149.192 766.349 150.496C766.246 151.8 765.105 152.771 763.805 152.67L754.228 151.905C752.925 151.802 751.951 150.663 752.055 149.36C752.157 148.056 753.295 147.084 754.599 147.186L764.174 147.95Z" fill="#43745F"/>
<path fill-rule="evenodd" clip-rule="evenodd" d="M796.659 123.299C795.478 123.862 794.065 123.359 793.504 122.18C792.941 120.999 793.443 119.586 794.623 119.023L803.296 114.89C804.475 114.327 805.89 114.828 806.452 116.009C807.015 117.19 806.512 118.603 805.333 119.166L796.659 123.299Z" fill="#43745F"/>
<path fill-rule="evenodd" clip-rule="evenodd" d="M791.801 113.286C791.659 114.584 790.489 115.521 789.192 115.379C787.894 115.235 786.959 114.066 787.101 112.77L788.178 103.222C788.32 101.924 789.489 100.989 790.785 101.131C792.085 101.273 793.02 102.442 792.878 103.74L791.801 113.286Z" fill="#43745F"/>
<path fill-rule="evenodd" clip-rule="evenodd" d="M794.007 142.029C795.082 142.776 795.345 144.248 794.6 145.324C793.853 146.397 792.379 146.662 791.306 145.915L783.418 140.43C782.345 139.685 782.08 138.21 782.825 137.137C783.572 136.062 785.046 135.799 786.12 136.543L794.007 142.029Z" fill="#43745F"/>
<path fill-rule="evenodd" clip-rule="evenodd" d="M804.317 131.235C805.621 131.344 806.593 132.485 806.483 133.788C806.376 135.092 805.233 136.061 803.93 135.954L794.357 135.153C793.053 135.046 792.083 133.903 792.191 132.6C792.3 131.296 793.443 130.326 794.746 130.434L804.317 131.235Z" fill="#43745F"/>
<path fill-rule="evenodd" clip-rule="evenodd" d="M780.938 123.785C782.113 123.219 783.526 123.712 784.092 124.887C784.659 126.062 784.165 127.475 782.99 128.044L774.341 132.222C773.166 132.788 771.75 132.295 771.186 131.121C770.618 129.944 771.111 128.531 772.286 127.963L780.938 123.785Z" fill="#43745F"/>
<path fill-rule="evenodd" clip-rule="evenodd" d="M692.548 202.442C693.764 202.918 694.365 204.289 693.888 205.506C693.414 206.721 692.043 207.322 690.826 206.848L683.666 204.031C682.449 203.557 681.85 202.184 682.324 200.969C682.799 199.752 684.171 199.153 685.389 199.627L692.548 202.442Z" fill="#43745F"/>
<path fill-rule="evenodd" clip-rule="evenodd" d="M687.549 190.298C688.766 190.774 689.365 192.145 688.891 193.362C688.415 194.578 687.044 195.178 685.827 194.702L678.667 191.888C677.45 191.413 676.851 190.041 677.325 188.823C677.799 187.608 679.172 187.007 680.389 187.483L687.549 190.298Z" fill="#43745F"/>
<path fill-rule="evenodd" clip-rule="evenodd" d="M668.354 194.31C669.412 193.544 670.891 193.78 671.659 194.838C672.427 195.896 672.189 197.375 671.133 198.143L664.898 202.655C663.84 203.421 662.362 203.183 661.594 202.127C660.826 201.069 661.064 199.592 662.12 198.822L668.354 194.31Z" fill="#43745F"/>
<path fill-rule="evenodd" clip-rule="evenodd" d="M666.717 155.96C666.886 154.668 668.07 153.758 669.364 153.925C670.657 154.094 671.567 155.279 671.4 156.571L670.388 164.199C670.219 165.493 669.034 166.403 667.74 166.236C666.448 166.067 665.538 164.883 665.705 163.589L666.717 155.96Z" fill="#43745F"/>
<path fill-rule="evenodd" clip-rule="evenodd" d="M776.909 149.734C776.347 148.555 776.848 147.14 778.029 146.577C779.209 146.015 780.623 146.518 781.185 147.697L784.495 154.643C785.058 155.824 784.555 157.237 783.376 157.8C782.195 158.362 780.782 157.861 780.219 156.68L776.909 149.734Z" fill="#43745F"/>
<path fill-rule="evenodd" clip-rule="evenodd" d="M758.14 160.367C757.894 159.084 758.737 157.846 760.019 157.6C761.302 157.354 762.542 158.197 762.786 159.48L764.234 167.039C764.479 168.321 763.636 169.56 762.354 169.804C761.071 170.049 759.833 169.207 759.587 167.926L758.14 160.367Z" fill="#43745F"/>
<path fill-rule="evenodd" clip-rule="evenodd" d="M769.418 156.151C769.03 154.904 769.725 153.578 770.973 153.188C772.219 152.8 773.545 153.495 773.935 154.743L776.113 161.69C776.5 162.936 775.805 164.265 774.555 164.652C773.309 165.04 771.983 164.345 771.595 163.097L769.418 156.151Z" fill="#43745F"/>
<path fill-rule="evenodd" clip-rule="evenodd" d="M764.082 108.959C763.519 107.78 764.02 106.367 765.201 105.804C766.382 105.242 767.795 105.743 768.356 106.924L771.666 113.87C772.228 115.049 771.725 116.464 770.545 117.025C769.366 117.587 767.953 117.086 767.39 115.905L764.082 108.959Z" fill="#43745F"/>
<path fill-rule="evenodd" clip-rule="evenodd" d="M666.638 105.278C665.448 104.746 664.914 103.351 665.444 102.16C665.976 100.968 667.373 100.434 668.564 100.966L677.331 104.894C678.521 105.426 679.055 106.824 678.525 108.014C677.995 109.205 676.597 109.738 675.407 109.208L666.638 105.278Z" fill="#43745F"/>
<path fill-rule="evenodd" clip-rule="evenodd" d="M694.322 173.127C693.412 172.194 693.433 170.696 694.37 169.788C695.305 168.878 696.801 168.899 697.709 169.832L704.416 176.712C705.326 177.647 705.305 179.144 704.37 180.053C703.435 180.963 701.937 180.941 701.029 180.006L694.322 173.127Z" fill="#43745F"/>
<path fill-rule="evenodd" clip-rule="evenodd" d="M726.634 185.862C727.544 184.927 729.04 184.906 729.975 185.816C730.908 186.726 730.929 188.222 730.019 189.155L723.324 196.046C722.414 196.981 720.918 197.002 719.983 196.09C719.048 195.18 719.027 193.686 719.939 192.751L726.634 185.862Z" fill="#43745F"/>
<path fill-rule="evenodd" clip-rule="evenodd" d="M722.729 154.244C722.877 152.944 724.052 152.013 725.348 152.161C726.648 152.309 727.579 153.482 727.431 154.78L726.312 164.322C726.164 165.62 724.989 166.551 723.693 166.403C722.395 166.255 721.464 165.082 721.611 163.784L722.729 154.244Z" fill="#43745F"/>
<path fill-rule="evenodd" clip-rule="evenodd" d="M735.284 113.016C735.432 111.716 736.607 110.785 737.903 110.933C739.201 111.081 740.132 112.254 739.984 113.552L738.866 123.094C738.719 124.392 737.545 125.323 736.248 125.175C734.95 125.027 734.016 123.854 734.164 122.558L735.284 113.016Z" fill="#43745F"/>
<path fill-rule="evenodd" clip-rule="evenodd" d="M726.285 66.7746C726.688 65.5323 728.022 64.8545 729.265 65.2577C730.507 65.6609 731.187 66.9954 730.783 68.2376L727.792 77.3672C727.387 78.6094 726.054 79.2891 724.81 78.884C723.57 78.4808 722.89 77.1483 723.293 75.9041L726.285 66.7746Z" fill="#43745F"/>
<path fill-rule="evenodd" clip-rule="evenodd" d="M703.867 67.7998C703.627 66.5172 704.472 65.2807 705.754 65.0407C707.037 64.8007 708.273 65.6455 708.513 66.9281L710.291 76.3687C710.533 77.6513 709.688 78.8859 708.404 79.1259C707.121 79.3659 705.889 78.5211 705.649 77.2385L703.867 67.7998Z" fill="#43745F"/>
<path fill-rule="evenodd" clip-rule="evenodd" d="M766.799 211.381L751.965 298.167C722.493 299.044 704.235 299.058 674.763 298.223L659.805 211.46C676.751 212.138 730.326 210.794 766.799 211.381Z" fill="#BE6B19"/>
<path d="M769.274 201.743H657.334V231.246H769.274V201.743Z" fill="#D57B19"/>
</svg>
