<svg width="1440" height="237" viewBox="0 0 1440 237" fill="none" xmlns="http://www.w3.org/2000/svg">
<path fill-rule="evenodd" clip-rule="evenodd" d="M193.421 0.00195312C170.24 82.6121 95.5249 35.8235 67.0495 83.7181C37.079 134.128 107.719 183.972 33.4868 224.256C29.2536 226.554 11.2988 232.366 0 236.243V0.00195312H193.421Z" fill="#CD556D"/>
<mask id="mask0_33_2778" style="mask-type:luminance" maskUnits="userSpaceOnUse" x="319" y="0" width="246" height="152">
<path d="M564.044 0.00195312H319.385V151.263H564.044V0.00195312Z" fill="white"/>
</mask>
<g mask="url(#mask0_33_2778)">
<path fill-rule="evenodd" clip-rule="evenodd" d="M420.225 37.6584C420.225 37.6584 391.156 62.1628 386.292 91.3713C381.43 120.58 393.144 128.248 391.287 141.738C411.765 99.1845 411.896 80.8323 420.225 37.6584Z" fill="#E6B595"/>
<path fill-rule="evenodd" clip-rule="evenodd" d="M430.524 21.0738C430.524 21.0738 403.454 13.8014 385.069 29.4829C366.682 45.1665 370.112 56.8524 361.804 64.4136C374.616 59.7974 381.893 60.8952 390.185 55.6113C403.27 47.2739 413.563 34.6889 430.524 21.0738Z" fill="#E6B595"/>
<path fill-rule="evenodd" clip-rule="evenodd" d="M430.506 21.0737C430.506 21.0737 454.097 26.2081 453.833 48.4391C453.569 70.6701 444.125 85.5837 443.488 96.0633C436.779 86.3619 431.62 78.3522 429.783 69.9656C426.883 56.7376 431.188 40.8001 430.506 21.0737Z" fill="#E6B595"/>
<path fill-rule="evenodd" clip-rule="evenodd" d="M457.12 -8.29247C457.12 -8.29247 434.205 -24.5986 413.61 -14.8932C393.015 -5.18771 393.294 7.72698 383.871 12.591C396.683 12.1896 403.05 15.708 411.906 13.1337C425.871 9.07252 438.331 -0.196731 457.12 -8.29247Z" fill="#E6B595"/>
<path fill-rule="evenodd" clip-rule="evenodd" d="M457.167 -8.24731C457.167 -8.24731 480.76 -3.11298 480.494 19.1181C480.229 41.3491 470.786 56.2626 470.149 66.7423C463.44 57.0409 458.281 49.0332 456.444 40.6446C453.544 27.4186 457.849 11.479 457.167 -8.24731Z" fill="#E6B595"/>
<path fill-rule="evenodd" clip-rule="evenodd" d="M485.515 -26.7346C485.515 -26.7346 503.695 -22.7779 503.488 -5.64841C503.284 11.4811 496.009 22.9724 495.518 31.0477C490.348 23.5725 486.371 17.3998 484.958 10.9404C482.726 0.745442 486.044 -11.5344 485.515 -26.7346Z" fill="#E6B595"/>
<path fill-rule="evenodd" clip-rule="evenodd" d="M517.872 -38.6377C517.872 -38.6377 533.486 -28.6189 529.117 -11.4259C524.751 5.76704 515.312 14.9318 512.893 22.9068C510.003 13.658 507.884 6.12134 508.168 -0.860287C508.621 -11.8724 514.642 -23.1466 517.872 -38.6377Z" fill="#E6B595"/>
<path fill-rule="evenodd" clip-rule="evenodd" d="M463.376 -64.6185C462.438 -64.7782 461.808 -65.6671 461.967 -66.6051C462.127 -67.543 463.018 -68.1738 463.956 -68.0141C464.06 -67.9957 500.33 -61.9233 519.682 -40.6446C519.932 -40.3681 520.077 -40.0323 520.118 -39.6882C520.131 -39.5735 524.997 -0.35022 515.506 17.2523C515.056 18.09 514.013 18.4033 513.176 17.9528C512.338 17.5022 512.025 16.4598 512.475 15.6221C520.817 0.143346 517.298 -33.9866 516.762 -38.7277C498.123 -58.794 463.477 -64.6001 463.376 -64.6185Z" fill="#E6B595"/>
<path fill-rule="evenodd" clip-rule="evenodd" d="M560.099 -55.7569C561.013 -56.017 561.967 -55.4865 562.227 -54.5711C562.487 -53.6556 561.957 -52.7033 561.041 -52.4432C560.902 -52.4023 512.688 -38.6684 486.128 -25.467C469.967 -17.4347 449.919 -3.04956 432.077 22.0384C418.714 40.8268 406.591 65.6178 398.254 98.2425C398.021 99.1661 397.083 99.7232 396.161 99.4877C395.237 99.2542 394.68 98.3162 394.916 97.3926C403.362 64.3276 415.685 39.1536 429.273 20.0437C447.51 -5.59727 468.044 -20.3203 484.606 -28.5533C511.469 -41.9022 559.958 -55.7159 560.099 -55.7569Z" fill="#E6B595"/>
<path fill-rule="evenodd" clip-rule="evenodd" d="M374.208 55.5418C373.43 56.0887 372.359 55.9023 371.81 55.124C371.263 54.3479 371.45 53.2727 372.228 52.7258C372.351 52.6378 415.582 22.1041 430.369 19.4684C431.221 19.3189 432.034 19.8227 432.298 20.6173C432.97 22.3335 445.34 54.438 444.25 85.9587C444.219 86.907 443.427 87.6524 442.478 87.6238C441.528 87.593 440.785 86.8005 440.813 85.8522C441.776 58.0261 431.98 29.6592 429.584 23.1752C414.349 27.1914 374.327 55.4579 374.208 55.5418Z" fill="#E6B595"/>
<path fill-rule="evenodd" clip-rule="evenodd" d="M395.149 8.5587C394.301 8.98878 393.263 8.65291 392.831 7.80504C392.401 6.95716 392.737 5.91883 393.585 5.4867C393.703 5.42731 434.252 -15.4766 457.636 -10.0023C458.246 -9.86101 458.703 -9.41045 458.883 -8.8534C459.586 -6.98767 474.057 31.7933 470.913 52.3736C470.772 53.3136 469.893 53.9629 468.953 53.8216C468.011 53.6802 467.364 52.8016 467.505 51.8616C470.321 33.4296 458.129 -0.931733 455.961 -6.83817C433.674 -11.2926 395.262 8.50135 395.149 8.5587Z" fill="#E6B595"/>
<path fill-rule="evenodd" clip-rule="evenodd" d="M424.415 -32.2887C423.477 -32.1351 422.592 -32.7721 422.441 -33.7101C422.289 -34.648 422.924 -35.5328 423.862 -35.6843C423.971 -35.7028 461.953 -42.1949 486.65 -29.2086C487.018 -29.014 487.287 -28.7068 487.434 -28.3525H487.438C487.481 -28.2542 501.983 5.97813 496.701 25.2355C496.451 26.1509 495.507 26.6896 494.594 26.4417C493.678 26.1919 493.138 25.2498 493.388 24.3344C497.969 7.62063 486.324 -21.9668 484.495 -26.4417C460.82 -38.5044 424.522 -32.3051 424.415 -32.2887Z" fill="#E6B595"/>
</g>
<path fill-rule="evenodd" clip-rule="evenodd" d="M847.082 66.1784C844.074 64.1866 840.022 65.0087 838.031 68.0143C836.039 71.0218 836.861 75.0743 839.867 77.065C842.874 79.0568 846.927 78.2348 848.918 75.2291C850.913 72.2238 850.089 68.1701 847.082 66.1784Z" fill="#E6B595"/>
<path fill-rule="evenodd" clip-rule="evenodd" d="M822.038 40.5053C815.548 36.2052 806.804 37.977 802.505 44.4647C798.205 50.9542 799.977 59.6983 806.466 63.9984C812.954 68.2974 821.7 66.5267 826 60.0372C830.3 53.5523 828.526 44.8044 822.038 40.5053Z" fill="#E6B595"/>
<path fill-rule="evenodd" clip-rule="evenodd" d="M103.479 148.398C103.315 144.794 100.264 142.006 96.6594 142.168C93.057 142.332 90.2676 145.383 90.4314 148.988C90.5932 152.59 93.6468 155.38 97.2492 155.218C100.854 155.054 103.641 152.001 103.479 148.398Z" fill="#E6B595"/>
<path fill-rule="evenodd" clip-rule="evenodd" d="M109.451 113.031C109.099 105.257 102.511 99.2379 94.7343 99.5901C86.958 99.9424 80.941 106.531 81.2933 114.305C81.6435 122.081 88.2339 128.1 96.0082 127.748C103.784 127.396 109.801 120.807 109.451 113.031Z" fill="#E6B595"/>
<path fill-rule="evenodd" clip-rule="evenodd" d="M139.475 73.1012C139.313 69.4967 136.26 66.7094 132.657 66.8712C129.053 67.033 126.265 70.0866 126.427 73.691C126.591 77.2935 129.642 80.0828 133.247 79.9211C136.849 79.7572 139.641 76.7037 139.475 73.1012Z" fill="#E6B595"/>
<path fill-rule="evenodd" clip-rule="evenodd" d="M1287.83 103.481C1291.43 103.317 1294.22 100.266 1294.06 96.6612C1293.89 93.0567 1290.84 90.2673 1287.24 90.4312C1283.63 90.595 1280.84 93.6465 1281.01 97.251C1281.17 100.853 1284.22 103.643 1287.83 103.481Z" fill="#E6B595"/>
<path fill-rule="evenodd" clip-rule="evenodd" d="M1323.19 109.451C1330.97 109.101 1336.99 102.51 1336.63 94.7362C1336.28 86.9599 1329.7 80.9429 1321.92 81.2931C1314.14 81.6454 1308.13 88.2338 1308.48 96.01C1308.83 103.784 1315.42 109.803 1323.19 109.451Z" fill="#E6B595"/>
<path fill-rule="evenodd" clip-rule="evenodd" d="M1363.13 139.477C1366.73 139.313 1369.52 136.261 1369.35 132.657C1369.19 129.054 1366.14 126.265 1362.54 126.427C1358.93 126.591 1356.14 129.642 1356.31 133.247C1356.47 136.851 1359.52 139.641 1363.13 139.477Z" fill="#E6B595"/>
<path fill-rule="evenodd" clip-rule="evenodd" d="M1440.03 184.586C1363.09 162.464 1406.67 91.1606 1362.06 63.9877C1315.11 35.3853 1268.69 102.799 1231.16 31.957C1229.03 27.9163 1223.61 10.7827 1220 0H1440.03V184.586Z" fill="#6A63A5"/>
</svg>
