<svg width="659" height="191" viewBox="0 0 659 191" fill="none" xmlns="http://www.w3.org/2000/svg">
<path fill-rule="evenodd" clip-rule="evenodd" d="M79.1538 175.393C172.124 99.7221 304.414 77.9471 420.367 105.824C475.519 119.084 504.628 134.293 529.503 148.462C579.491 176.931 588.295 190.083 596.568 190.994C602.114 191.605 600.849 141.246 600.849 141.246C600.849 141.246 655.153 150.552 658.877 144.147C662.6 137.74 582.431 13.976 360.247 1.07811C138.066 -11.8198 1.3289 94.9538 0.0241818 110.856C-1.28492 126.759 50.9938 118.161 50.9938 123.044C50.9938 174.58 44.8188 203.335 79.1538 175.393Z" fill="#6A63A5"/>
<path d="M77.35 108.059L79.4775 110.566L74.2439 115.007L76.5421 117.715L80.4581 114.392L82.5234 116.826L78.6074 120.149L83.0175 125.346L79.8883 128.002L68.9873 115.155L77.35 108.059Z" fill="white"/>
<path d="M92.2982 101.392L100.162 112.232L96.84 114.642L95.769 113.166C95.7799 113.889 95.602 114.611 95.2353 115.332C94.8721 116.03 94.3408 116.633 93.6415 117.14C92.8126 117.741 91.9493 118.091 91.0517 118.189C90.1446 118.273 89.2626 118.093 88.4056 117.647C87.5485 117.202 86.7771 116.506 86.0913 115.561L81.497 109.228L84.7996 106.832L89.0697 112.718C89.5958 113.443 90.1923 113.87 90.8591 113.999C91.5259 114.129 92.1766 113.963 92.8112 113.502C93.4588 113.033 93.8247 112.461 93.9091 111.787C93.9934 111.113 93.7725 110.413 93.2464 109.688L88.9763 103.802L92.2982 101.392Z" fill="white"/>
<path d="M101.871 95.1156C103.201 94.2856 104.531 94.0593 105.86 94.4368C107.195 94.7923 108.332 95.7234 109.272 97.2301L113.414 103.868L109.953 106.028L106.103 99.8582C105.629 99.0981 105.063 98.6304 104.407 98.4552C103.751 98.2801 103.09 98.4 102.425 98.815C101.76 99.23 101.362 99.7708 101.231 100.437C101.1 101.104 101.271 101.817 101.746 102.577L105.595 108.747L102.113 110.919L95.0241 99.5575L98.5059 97.3849L99.4461 98.8917C99.4856 98.1692 99.7151 97.4791 100.134 96.8214C100.545 96.1501 101.124 95.5815 101.871 95.1156Z" fill="white"/>
<path d="M111.509 97.1808C110.854 95.9707 110.504 94.7865 110.459 93.6282C110.428 92.4622 110.674 91.4198 111.195 90.5008C111.716 89.5818 112.463 88.8595 113.433 88.334C114.207 87.9151 114.999 87.6961 115.807 87.677C116.629 87.6503 117.372 87.8123 118.035 88.163L115.076 82.6965L118.685 80.7429L127.139 96.3616L123.53 98.3152L122.616 96.6267C122.583 97.3723 122.341 98.0854 121.891 98.7658C121.455 99.4386 120.821 99.9997 119.991 100.449C119.02 100.975 118.007 101.204 116.953 101.138C115.891 101.058 114.88 100.687 113.921 100.023C112.968 99.3385 112.164 98.3909 111.509 97.1808ZM120.343 92.4265C119.855 91.526 119.217 90.9525 118.429 90.7061C117.655 90.452 116.909 90.5192 116.191 90.9076C115.473 91.2961 115.002 91.8877 114.777 92.6825C114.559 93.4556 114.694 94.2925 115.181 95.193C115.669 96.0935 116.303 96.6779 117.085 96.946C117.874 97.1924 118.627 97.1214 119.344 96.733C120.062 96.3446 120.526 95.7568 120.737 94.9696C120.961 94.1748 120.83 93.3271 120.343 92.4265Z" fill="white"/>
<path d="M125.762 89.505C125.175 88.2606 124.891 87.0589 124.91 85.8998C124.944 84.7339 125.246 83.7066 125.818 82.8178C126.389 81.929 127.174 81.249 128.172 80.7779C129.026 80.3751 129.853 80.1971 130.654 80.2439C131.469 80.2839 132.183 80.5042 132.797 80.9046L131.987 79.19L135.699 77.4386L141.414 89.55L137.702 91.3013L136.893 89.5866C136.798 90.3217 136.506 91.0164 136.019 91.671C135.546 92.3187 134.883 92.844 134.029 93.2468C133.045 93.7111 132.029 93.8812 130.979 93.7571C129.923 93.6185 128.935 93.1916 128.013 92.4764C127.1 91.7399 126.349 90.7494 125.762 89.505ZM134.845 85.2456C134.408 84.3196 133.803 83.7117 133.029 83.4221C132.27 83.1257 131.522 83.1516 130.784 83.4999C130.046 83.8481 129.542 84.4128 129.274 85.194C129.014 85.9539 129.102 86.7969 129.539 87.7229C129.976 88.649 130.577 89.2675 131.343 89.5784C132.117 89.868 132.872 89.8386 133.61 89.4904C134.348 89.1422 134.844 88.5809 135.098 87.8065C135.366 87.0254 135.282 86.1717 134.845 85.2456Z" fill="white"/>
<path d="M140.438 82.6401C139.905 81.3541 139.698 80.1236 139.817 78.9484C139.951 77.7671 140.376 76.7248 141.093 75.8215C141.824 74.9121 142.796 74.2062 144.008 73.7038C145.56 73.0605 147.022 72.9309 148.393 73.3149C149.78 73.6929 150.942 74.5535 151.88 75.8967L147.844 77.5693C147.112 76.7643 146.259 76.564 145.283 76.9683C144.588 77.2563 144.147 77.7595 143.96 78.4779C143.767 79.1815 143.879 80.0359 144.295 81.041C144.712 82.0461 145.24 82.7362 145.881 83.1116C146.515 83.4721 147.18 83.5084 147.875 83.2205C148.85 82.8161 149.312 82.0705 149.26 80.9836L153.295 79.311C153.57 80.8943 153.354 82.3173 152.648 83.58C151.942 84.8427 150.82 85.7927 149.283 86.4298C148.071 86.9322 146.885 87.1208 145.724 86.9956C144.579 86.8643 143.541 86.4285 142.61 85.6884C141.695 84.9421 140.971 83.926 140.438 82.6401Z" fill="white"/>
<path d="M153.64 68.5312C152.967 68.7867 152.34 68.8023 151.758 68.5781C151.186 68.3332 150.789 67.9191 150.568 67.3357C150.341 66.7374 150.363 66.1642 150.634 65.6163C150.914 65.0478 151.391 64.6357 152.064 64.3802C152.722 64.1303 153.338 64.1278 153.91 64.3727C154.491 64.597 154.895 65.0083 155.123 65.6066C155.344 66.19 155.315 66.7659 155.034 67.3345C154.763 67.8824 154.298 68.2813 153.64 68.5312ZM156.041 69.1085L160.794 81.6288L156.957 83.0853L152.204 70.5651L156.041 69.1085Z" fill="white"/>
<path d="M169.18 78.8827C167.941 79.3124 166.73 79.4357 165.549 79.2525C164.383 79.0641 163.342 78.5781 162.427 77.7946C161.527 77.0059 160.849 75.954 160.393 74.6388C159.943 73.3387 159.834 72.0978 160.068 70.916C160.296 69.7191 160.818 68.6831 161.632 67.8081C162.446 66.9331 163.473 66.2807 164.713 65.851C165.953 65.4212 167.163 65.2979 168.344 65.4811C169.525 65.6643 170.576 66.1552 171.497 66.9538C172.412 67.7373 173.095 68.7791 173.545 70.0791C173.996 71.3792 174.1 72.6303 173.856 73.8325C173.622 75.0143 173.09 76.0453 172.261 76.9255C171.447 77.8005 170.42 78.4529 169.18 78.8827ZM168.017 75.5266C168.757 75.2698 169.29 74.7802 169.616 74.0578C169.956 73.3301 169.951 72.4599 169.6 71.447C169.249 70.4342 168.722 69.7447 168.019 69.3787C167.331 69.0074 166.617 68.9502 165.877 69.207C165.121 69.4691 164.588 69.9587 164.277 70.6758C163.962 71.3779 163.982 72.2429 164.339 73.2709C164.69 74.2837 165.202 74.9784 165.874 75.3549C166.562 75.7262 167.276 75.7834 168.017 75.5266ZM166.6 61.7677L161.929 65.9526L161.001 63.2768L165.554 58.7518L166.6 61.7677Z" fill="white"/>
<path d="M181.375 60.5273C182.875 60.0718 184.218 60.1992 185.403 60.9095C186.599 61.5998 187.455 62.7946 187.971 64.494L190.244 71.9806L186.34 73.1658L184.228 66.2075C183.967 65.3501 183.543 64.7515 182.955 64.4117C182.367 64.0719 181.698 64.0158 180.948 64.2436C180.198 64.4714 179.673 64.8899 179.373 65.4993C179.073 66.1087 179.053 66.8421 179.313 67.6995L181.426 74.6579L177.499 75.8501L173.608 63.0356L177.535 61.8434L178.051 63.5428C178.277 62.8555 178.678 62.2488 179.254 61.7228C179.826 61.1815 180.533 60.783 181.375 60.5273Z" fill="white"/>
<path d="M207.167 55.7708C207.405 56.7173 207.406 57.6409 207.17 58.5415C206.931 59.4266 206.422 60.2228 205.643 60.9302C204.864 61.6375 203.807 62.1589 202.472 62.4945L200.005 63.1148L201.48 68.9803L197.5 69.981L193.391 53.6417L199.839 52.0205C201.142 51.6928 202.3 51.6407 203.314 51.8644C204.327 52.0881 205.158 52.5391 205.807 53.2173C206.456 53.8955 206.909 54.7467 207.167 55.7708ZM201.374 59.4051C202.134 59.2139 202.656 58.893 202.938 58.4425C203.221 57.992 203.28 57.4409 203.117 56.7891C202.953 56.1374 202.64 55.6799 202.178 55.4167C201.715 55.1534 201.104 55.1174 200.344 55.3086L198.179 55.8529L199.209 59.9494L201.374 59.4051Z" fill="white"/>
<path d="M222.633 56.9794C222.716 57.3545 222.778 57.7504 222.82 58.167L213.747 60.1548C213.988 60.9538 214.383 61.5225 214.932 61.8608C215.493 62.1801 216.11 62.2661 216.782 62.1188C217.782 61.8997 218.385 61.3253 218.591 60.3957L222.858 59.4609C222.827 60.3684 222.598 61.2294 222.171 62.0438C221.759 62.8548 221.166 63.5498 220.392 64.1288C219.618 64.7079 218.699 65.1139 217.636 65.3467C216.355 65.6275 215.154 65.604 214.034 65.2761C212.914 64.9482 211.961 64.338 211.176 63.4453C210.391 62.5527 209.849 61.4265 209.551 60.0668C209.253 58.707 209.266 57.4593 209.591 56.3235C209.931 55.1844 210.541 54.2317 211.422 53.4655C212.302 52.6993 213.391 52.1741 214.688 51.8899C215.954 51.6125 217.138 51.6317 218.239 51.9474C219.34 52.263 220.272 52.8532 221.034 53.718C221.813 54.5794 222.346 55.6665 222.633 56.9794ZM218.3 56.8233C218.149 56.1356 217.795 55.6399 217.237 55.3363C216.679 55.0327 216.048 54.9579 215.345 55.112C214.673 55.2592 214.145 55.5796 213.762 56.0731C213.394 56.5631 213.234 57.1796 213.283 57.9225L218.3 56.8233Z" fill="white"/>
<path d="M223.938 56.9123C223.69 55.559 223.723 54.3246 224.038 53.2092C224.37 52.0908 224.925 51.1753 225.705 50.4625C226.485 49.7497 227.418 49.2935 228.504 49.0939C229.369 48.9348 230.189 48.9711 230.964 49.2028C231.755 49.4317 232.411 49.8154 232.933 50.3539L231.809 44.2403L235.845 43.4982L239.056 60.9655L235.02 61.7076L234.673 59.8192C234.411 60.5181 233.961 61.1215 233.322 61.6293C232.699 62.1343 231.923 62.4721 230.995 62.6428C229.909 62.8425 228.875 62.7479 227.892 62.3591C226.907 61.9546 226.061 61.2887 225.353 60.3613C224.659 59.4153 224.187 58.2656 223.938 56.9123ZM233.809 55.122C233.624 54.1148 233.195 53.3722 232.521 52.8941C231.863 52.4132 231.133 52.2464 230.331 52.394C229.528 52.5415 228.897 52.9585 228.438 53.6449C227.991 54.3127 227.86 55.1501 228.046 56.1572C228.231 57.1643 228.654 57.9163 229.314 58.413C229.988 58.8911 230.726 59.0563 231.528 58.9088C232.331 58.7612 232.954 58.3457 233.398 57.6622C233.857 56.9758 233.994 56.1291 233.809 55.122Z" fill="white"/>
<path d="M239.907 53.9976C239.701 52.637 239.774 51.4043 240.126 50.2996C240.493 49.1925 241.077 48.2952 241.88 47.6079C242.682 46.9205 243.629 46.4945 244.721 46.3299C245.654 46.1891 246.498 46.256 247.251 46.5308C248.02 46.8031 248.641 47.2191 249.114 47.7789L248.831 45.9041L252.889 45.292L254.887 58.5343L250.829 59.1463L250.546 57.2715C250.243 57.9482 249.765 58.5301 249.11 59.0172C248.471 59.5019 247.685 59.8146 246.752 59.9554C245.676 60.1176 244.653 59.9887 243.684 59.5686C242.712 59.1327 241.887 58.4399 241.21 57.4903C240.546 56.5224 240.112 55.3582 239.907 53.9976ZM249.83 52.5252C249.677 51.5126 249.272 50.7566 248.614 50.2572C247.972 49.7553 247.248 49.5652 246.441 49.6869C245.634 49.8086 244.99 50.2051 244.509 50.8764C244.041 51.5295 243.883 52.3623 244.036 53.3748C244.189 54.3874 244.587 55.1525 245.232 55.6702C245.889 56.1696 246.622 56.3585 247.429 56.2368C248.236 56.1151 248.872 55.7198 249.337 55.0509C249.818 54.3797 249.983 53.5377 249.83 52.5252Z" fill="white"/>
<path d="M261.006 44.0762C261.944 43.9636 262.785 44.0559 263.529 44.3532C264.29 44.6486 264.898 45.0831 265.354 45.6568L265.128 43.7744L269.202 43.2848L270.797 56.5573C270.944 57.7805 270.831 58.9142 270.456 59.9582C270.1 61.0163 269.457 61.8994 268.527 62.6074C267.612 63.3135 266.417 63.7553 264.939 63.9328C262.969 64.1695 261.317 63.8927 259.981 63.1024C258.647 62.328 257.797 61.1571 257.431 59.5895L261.458 59.1056C261.647 59.5987 261.996 59.9596 262.507 60.1882C263.02 60.4328 263.626 60.5131 264.325 60.4291C265.167 60.3279 265.804 60.0015 266.238 59.4499C266.689 58.9123 266.85 58.1113 266.722 57.0469L266.496 55.1645C266.174 55.8317 265.687 56.4059 265.035 56.887C264.382 57.3523 263.587 57.6412 262.65 57.7538C261.554 57.8855 260.527 57.7268 259.571 57.2777C258.613 56.8127 257.809 56.0955 257.161 55.1259C256.527 54.1385 256.127 52.9617 255.963 51.5955C255.799 50.2294 255.909 48.9995 256.293 47.9058C256.694 46.8102 257.305 45.931 258.128 45.2681C258.951 44.6052 259.91 44.2079 261.006 44.0762ZM265.927 50.4226C265.804 49.4059 265.422 48.638 264.78 48.1189C264.153 47.598 263.434 47.3862 262.624 47.4835C261.814 47.5809 261.158 47.9578 260.657 48.6143C260.17 49.253 259.987 50.0807 260.109 51.0974C260.232 52.114 260.607 52.8908 261.236 53.4277C261.878 53.9467 262.604 54.1576 263.415 54.0602C264.225 53.9629 264.872 53.5869 265.358 52.9323C265.859 52.2758 266.049 51.4392 265.927 50.4226Z" fill="white"/>
<path d="M279.588 55.9438C278.281 56.0612 277.077 55.8882 275.975 55.4249C274.889 54.9602 273.997 54.2372 273.298 53.2557C272.615 52.2729 272.212 51.0882 272.087 49.7018C271.964 48.3313 272.159 47.101 272.671 46.0107C273.182 44.9046 273.939 44.0254 274.941 43.3731C275.942 42.7209 277.096 42.3361 278.403 42.2187C279.71 42.1013 280.914 42.2743 282.016 42.7376C283.118 43.2008 284.019 43.9312 284.719 44.9285C285.417 45.91 285.828 47.0859 285.951 48.4564C286.075 49.8269 285.873 51.0659 285.346 52.1735C284.833 53.2637 284.068 54.1357 283.05 54.7894C282.049 55.4416 280.895 55.8264 279.588 55.9438ZM279.27 52.406C280.051 52.3359 280.686 51.9896 281.177 51.3673C281.683 50.7435 281.888 49.8977 281.792 48.83C281.696 47.7623 281.352 46.966 280.758 46.4409C280.181 45.9145 279.502 45.6863 278.721 45.7565C277.924 45.8281 277.289 46.1743 276.814 46.7952C276.338 47.4002 276.149 48.2445 276.247 49.3282C276.342 50.3959 276.671 51.1937 277.233 51.7216C277.81 52.248 278.489 52.4762 279.27 52.406ZM281.221 38.7126L275.677 41.6443L275.423 38.8237L280.935 35.5334L281.221 38.7126Z" fill="white"/>
<path d="M292.731 41.1222C293.673 41.0646 294.507 41.206 295.233 41.5464C295.975 41.8857 296.557 42.3551 296.979 42.9545L296.863 41.0621L300.959 40.8117L301.775 54.1548C301.85 55.3845 301.67 56.5096 301.236 57.53C300.818 58.5654 300.124 59.4093 299.154 60.0617C298.2 60.7131 296.981 61.0842 295.495 61.1749C293.515 61.296 291.881 60.9229 290.594 60.0559C289.308 59.2047 288.528 57.9861 288.255 56.3998L292.303 56.1523C292.462 56.6556 292.79 57.0363 293.286 57.2945C293.784 57.5686 294.384 57.6842 295.087 57.6413C295.933 57.5895 296.589 57.301 297.054 56.7757C297.536 56.2653 297.744 55.4752 297.678 54.4052L297.563 52.5127C297.202 53.1599 296.682 53.7046 296.004 54.1469C295.324 54.5731 294.514 54.815 293.571 54.8726C292.469 54.9399 291.454 54.7215 290.526 54.2172C289.596 53.6969 288.836 52.9338 288.246 51.928C287.67 50.9052 287.341 49.7071 287.257 48.3336C287.173 46.9602 287.354 45.7388 287.802 44.6695C288.266 43.5992 288.928 42.7573 289.788 42.1437C290.648 41.5301 291.629 41.1896 292.731 41.1222ZM297.271 47.7456C297.209 46.7235 296.872 45.9346 296.261 45.3788C295.666 44.8221 294.961 44.5686 294.147 44.6184C293.332 44.6681 292.656 45.0061 292.117 45.6321C291.593 46.2412 291.362 47.0568 291.425 48.0789C291.487 49.101 291.817 49.8984 292.413 50.4711C293.024 51.0268 293.736 51.2798 294.551 51.23C295.365 51.1803 296.034 50.8428 296.557 50.2178C297.096 49.5917 297.334 48.7677 297.271 47.7456Z" fill="white"/>
<path d="M306.017 39.1746C305.297 39.2053 304.697 39.0227 304.216 38.6268C303.75 38.2143 303.503 37.6964 303.477 37.0729C303.45 36.4335 303.651 35.8964 304.081 35.4617C304.526 35.0103 305.108 34.7693 305.828 34.7386C306.531 34.7086 307.116 34.8999 307.582 35.3124C308.063 35.7082 308.317 36.2259 308.344 36.8653C308.371 37.4887 308.162 38.0261 307.717 38.4775C307.287 38.9122 306.72 39.1446 306.017 39.1746ZM308.114 40.4784L308.685 53.8582L304.585 54.0331L304.014 40.6533L308.114 40.4784Z" fill="white"/>
<path d="M310.517 47.0925C310.488 45.7008 310.744 44.4793 311.282 43.4281C311.837 42.3765 312.612 41.5605 313.609 40.9801C314.621 40.3993 315.783 40.0955 317.095 40.0687C318.774 40.0344 320.183 40.4457 321.321 41.3026C322.475 42.1592 323.244 43.3838 323.628 44.9763L319.261 45.0655C318.872 44.0492 318.15 43.5518 317.094 43.5734C316.343 43.5888 315.749 43.897 315.313 44.498C314.877 45.083 314.67 45.9194 314.692 47.0072C314.714 48.095 314.955 48.9302 315.415 49.513C315.875 50.0797 316.481 50.3554 317.233 50.34C318.288 50.3184 318.99 49.792 319.337 48.7607L323.704 48.6715C323.384 50.2464 322.665 51.4933 321.548 52.4123C320.43 53.3313 319.04 53.8078 317.376 53.8418C316.064 53.8686 314.891 53.6125 313.856 53.0735C312.836 52.5343 312.028 51.7506 311.431 50.7226C310.85 49.6942 310.545 48.4842 310.517 47.0925Z" fill="white"/>
<path d="M325.001 46.7888C325.007 45.4129 325.268 44.206 325.785 43.1683C326.318 42.1307 327.033 41.334 327.932 40.778C328.83 40.2221 329.832 39.9466 330.936 39.9516C331.88 39.9559 332.703 40.1516 333.405 40.5388C334.123 40.9261 334.673 41.4325 335.054 42.0583L335.063 40.1623L339.167 40.1809L339.106 53.5727L335.002 53.5542L335.011 51.6582C334.608 52.2804 334.046 52.7818 333.324 53.1626C332.618 53.5434 331.793 53.7316 330.849 53.7274C329.761 53.7224 328.771 53.438 327.877 52.8739C326.984 52.2939 326.275 51.4827 325.752 50.4403C325.245 49.382 324.994 48.1648 325.001 46.7888ZM335.032 46.8582C335.037 45.8342 334.753 45.0249 334.179 44.4303C333.622 43.8358 332.935 43.5367 332.119 43.533C331.303 43.5293 330.606 43.8222 330.027 44.4116C329.465 44.985 329.181 45.7837 329.177 46.8077C329.172 47.8317 329.448 48.649 330.006 49.2595C330.579 49.8541 331.273 50.1533 332.089 50.1569C332.905 50.1606 333.595 49.8678 334.157 49.2783C334.736 48.6889 335.028 47.8822 335.032 46.8582Z" fill="white"/>
<path d="M349.474 39.0345C348.755 39.0099 348.17 38.7819 347.721 38.3503C347.288 37.9033 347.082 37.368 347.103 36.7443C347.125 36.1047 347.367 35.5847 347.829 35.1842C348.307 34.7682 348.906 34.5725 349.626 34.597C350.329 34.621 350.898 34.8565 351.331 35.3035C351.78 35.7351 351.994 36.2707 351.972 36.9103C351.951 37.534 351.701 38.0538 351.223 38.4697C350.761 38.8702 350.178 39.0584 349.474 39.0345ZM351.466 40.4952L351.01 53.8794L346.908 53.7396L347.364 40.3553L351.466 40.4952Z" fill="white"/>
<path d="M362.697 40.94C364.263 41.0267 365.481 41.6069 366.35 42.6807C367.237 43.7393 367.632 45.1553 367.533 46.9286L367.101 54.7406L363.027 54.5151L363.429 47.2542C363.479 46.3595 363.286 45.6518 362.85 45.1309C362.414 44.61 361.804 44.3279 361.022 44.2845C360.239 44.2412 359.602 44.4543 359.111 44.9239C358.621 45.3935 358.351 46.0756 358.301 46.9702L357.899 54.2311L353.801 54.0042L354.542 40.6327L358.639 40.8596L358.541 42.6329C358.989 42.0648 359.574 41.6325 360.296 41.3359C361.018 41.0233 361.818 40.8914 362.697 40.94Z" fill="white"/>
<path d="M377.464 52.0352L377.191 55.5045L375.11 55.3408C373.626 55.2242 372.498 54.7744 371.725 53.9914C370.953 53.1925 370.632 51.9715 370.761 50.3286L371.179 45.017L369.552 44.8891L369.819 41.4916L371.446 41.6195L371.701 38.3655L375.793 38.6872L375.537 41.9411L378.217 42.1518L377.95 45.5493L375.27 45.3386L374.849 50.6981C374.817 51.0969 374.89 51.3915 375.068 51.582C375.246 51.7725 375.558 51.8853 376.004 51.9204L377.464 52.0352Z" fill="white"/>
<path d="M392.535 50.0908C392.496 50.4729 392.432 50.8684 392.342 51.2775L383.101 50.3445C383.081 51.1787 383.28 51.842 383.697 52.3343C384.131 52.8124 384.69 53.0859 385.375 53.1551C386.393 53.2579 387.145 52.8996 387.63 52.0802L391.976 52.519C391.665 53.372 391.179 54.119 390.519 54.76C389.876 55.4026 389.096 55.8787 388.18 56.1882C387.264 56.4978 386.265 56.5979 385.183 56.4886C383.877 56.3568 382.743 55.9609 381.781 55.3009C380.818 54.6409 380.103 53.7645 379.634 52.6719C379.165 51.5793 379.001 50.3406 379.141 48.9556C379.281 47.5706 379.681 46.3889 380.343 45.4104C381.021 44.4336 381.897 43.718 382.972 43.2637C384.047 42.8094 385.245 42.6489 386.567 42.7823C387.856 42.9125 388.975 43.2989 389.923 43.9414C390.871 44.5839 391.573 45.4347 392.029 46.4939C392.501 47.5546 392.67 48.7536 392.535 50.0908ZM388.464 48.5944C388.535 47.8939 388.353 47.3127 387.917 46.8505C387.481 46.3884 386.905 46.1212 386.189 46.0489C385.504 45.9798 384.903 46.1201 384.385 46.4698C383.883 46.8212 383.54 47.3574 383.354 48.0784L388.464 48.5944Z" fill="white"/>
<path d="M400.545 44.3852C401.481 44.507 402.273 44.8036 402.922 45.2752C403.586 45.7488 404.069 46.3198 404.369 46.9881L404.614 45.1079L408.683 45.637L406.96 58.8935C406.801 60.1152 406.412 61.1859 405.792 62.1057C405.186 63.0434 404.345 63.7408 403.269 64.1979C402.209 64.657 400.941 64.7907 399.466 64.5988C397.498 64.343 395.964 63.6676 394.864 62.5727C393.762 61.4936 393.227 60.1493 393.259 58.54L397.281 59.063C397.342 59.5872 397.592 60.023 398.031 60.3705C398.468 60.7339 399.035 60.9609 399.733 61.0517C400.574 61.161 401.272 61.0018 401.828 60.5738C402.398 60.1639 402.752 59.4274 402.89 58.3643L403.134 56.4841C402.657 57.0513 402.044 57.4879 401.294 57.7938C400.547 58.0838 399.705 58.168 398.769 58.0463C397.674 57.9039 396.718 57.4973 395.902 56.8265C395.088 56.1397 394.486 55.2467 394.096 54.1473C393.725 53.0341 393.628 51.7952 393.805 50.4307C393.983 49.0662 394.392 47.9013 395.034 46.936C395.692 45.9728 396.501 45.2712 397.462 44.8314C398.422 44.3916 399.45 44.2429 400.545 44.3852ZM403.75 51.748C403.882 50.7325 403.701 49.8942 403.206 49.2328C402.727 48.5736 402.083 48.1913 401.274 48.0861C400.465 47.9809 399.736 48.1847 399.089 48.6975C398.459 49.1965 398.078 49.9537 397.946 50.9692C397.814 51.9846 397.987 52.8299 398.464 53.505C398.958 54.1663 399.61 54.5496 400.42 54.6548C401.229 54.76 401.949 54.5552 402.581 54.0404C403.228 53.5276 403.618 52.7634 403.75 51.748Z" fill="white"/>
<path d="M415.459 48.9205C416.048 48.268 416.73 47.7923 417.506 47.4932C418.284 47.1783 419.108 47.0892 419.977 47.226L419.302 51.5172L418.188 51.3419C417.177 51.1828 416.383 51.2848 415.808 51.6478C415.235 51.995 414.863 52.7138 414.691 53.8044L413.725 59.9449L409.671 59.3072L411.752 46.0779L415.806 46.7156L415.459 48.9205Z" fill="white"/>
<path d="M420.003 54.1466C420.251 52.7932 420.721 51.6513 421.413 50.7209C422.12 49.7933 422.964 49.1351 423.947 48.7461C424.929 48.3571 425.963 48.2623 427.049 48.4616C427.978 48.6321 428.754 48.9697 429.377 49.4745C430.015 49.9823 430.467 50.5777 430.732 51.2607L431.075 49.3959L435.111 50.137L432.693 63.3089L428.656 62.5677L428.999 60.7029C428.493 61.2444 427.851 61.639 427.073 61.8867C426.312 62.1372 425.466 62.1773 424.538 62.0068C423.468 61.8103 422.543 61.3558 421.763 60.6432C420.985 59.9149 420.431 58.9916 420.099 57.8733C419.786 56.7422 419.754 55.5 420.003 54.1466ZM429.866 55.9818C430.05 54.9747 429.913 54.1279 429.453 53.4417C429.01 52.7583 428.386 52.3429 427.584 52.1955C426.781 52.0482 426.043 52.2136 425.37 52.6919C424.715 53.1573 424.295 53.8936 424.11 54.9007C423.925 55.9079 424.053 56.761 424.494 57.4602C424.954 58.1465 425.585 58.5633 426.388 58.7106C427.19 58.858 427.92 58.6911 428.578 58.2099C429.251 57.7317 429.681 56.989 429.866 55.9818Z" fill="white"/>
<path d="M443.048 47.2918L439.425 64.6782L435.407 63.8409L439.031 46.4545L443.048 47.2918Z" fill="white"/>
<path d="M447.807 59.6548C448.136 58.3185 448.672 57.2065 449.418 56.3186C450.179 55.4346 451.061 54.8276 452.065 54.4975C453.068 54.1675 454.106 54.1341 455.178 54.3975C456.033 54.6075 456.766 54.977 457.378 55.5062C458.004 56.0391 458.445 56.6582 458.701 57.3635L460.184 51.3269L464.169 52.3061L459.932 69.5532L455.946 68.5741L456.405 66.7095C455.879 67.2395 455.221 67.605 454.43 67.8061C453.655 68.0111 452.809 68.0009 451.892 67.7757C450.82 67.5123 449.915 67.0018 449.179 66.2443C448.446 65.4711 447.948 64.5166 447.683 63.3806C447.438 62.233 447.479 60.991 447.807 59.6548ZM457.544 62.0715C457.788 61.077 457.701 60.2237 457.283 59.5113C456.881 58.8028 456.283 58.3512 455.491 58.1565C454.698 57.9619 453.952 58.0833 453.251 58.5208C452.57 58.9465 452.107 59.6566 451.863 60.6511C451.619 61.6455 451.696 62.5047 452.095 63.2288C452.513 63.9411 453.118 64.3946 453.91 64.5893C454.703 64.7839 455.442 64.6606 456.127 64.2193C456.827 63.7819 457.3 63.0659 457.544 62.0715Z" fill="white"/>
<path d="M476.537 67.0419C476.432 67.4113 476.299 67.7894 476.139 68.1764L467.206 65.6343C467.04 66.4521 467.119 67.1399 467.442 67.6978C467.786 68.2446 468.288 68.6122 468.95 68.8005C469.935 69.0808 470.738 68.8602 471.359 68.1386L475.56 69.3342C475.104 70.1192 474.495 70.7693 473.733 71.2844C472.986 71.8039 472.135 72.1356 471.179 72.2794C470.223 72.4233 469.222 72.3464 468.176 72.0486C466.914 71.6895 465.867 71.1005 465.035 70.2816C464.204 69.4627 463.653 68.4743 463.384 67.3164C463.114 66.1584 463.17 64.91 463.551 63.5712C463.932 62.2323 464.534 61.1394 465.358 60.2924C466.196 59.4498 467.185 58.8993 468.323 58.6409C469.461 58.3826 470.669 58.4351 471.946 58.7986C473.193 59.1533 474.226 59.7302 475.047 60.5293C475.867 61.3285 476.409 62.2894 476.672 63.4122C476.95 64.5393 476.905 65.7493 476.537 67.0419ZM472.793 64.8537C472.986 64.1765 472.908 63.5722 472.56 63.0407C472.213 62.5093 471.692 62.145 471 61.9479C470.338 61.7596 469.722 61.7921 469.151 62.0455C468.595 62.3032 468.162 62.7707 467.853 63.4479L472.793 64.8537Z" fill="white"/>
<path d="M483.217 67.5031C483.756 65.9286 484.575 64.6448 485.676 63.6515C486.782 62.643 488.056 62.0053 489.501 61.7382C490.965 61.4611 492.469 61.5867 494.014 62.1147C495.906 62.7619 497.355 63.8155 498.361 65.2754C499.366 66.7354 499.801 68.406 499.665 70.2872L495.396 68.8272C495.306 68.0523 495.025 67.3898 494.554 66.8397C494.097 66.2948 493.498 65.8955 492.757 65.6418C491.561 65.2328 490.449 65.3178 489.423 65.8967C488.396 66.4757 487.645 67.4616 487.168 68.8544C486.692 70.2472 486.683 71.4868 487.14 72.5731C487.597 73.6595 488.423 74.4071 489.619 74.8161C490.361 75.0698 491.079 75.1209 491.773 74.9695C492.483 74.8232 493.111 74.4713 493.656 73.9139L497.926 75.3739C496.881 76.9445 495.514 77.999 493.825 78.5374C492.141 79.0606 490.353 78.9987 488.461 78.3515C486.917 77.8235 485.648 77.0091 484.655 75.9085C483.682 74.7979 483.064 73.513 482.802 72.0537C482.54 70.5945 482.679 69.0776 483.217 67.5031Z" fill="white"/>
<path d="M503.655 83.9793C502.434 83.4986 501.435 82.8044 500.658 81.8964C499.895 80.9944 499.422 79.9482 499.237 78.7577C499.067 77.5731 499.237 76.3332 499.747 75.038C500.251 73.7577 500.976 72.745 501.923 72C502.876 71.2402 503.946 70.7931 505.134 70.6589C506.321 70.5247 507.526 70.6979 508.746 71.1785C509.967 71.6591 510.966 72.3534 511.744 73.2613C512.521 74.1692 512.999 75.2258 513.178 76.4311C513.363 77.6216 513.203 78.857 512.699 80.1373C512.195 81.4177 511.46 82.4348 510.492 83.1888C509.545 83.9338 508.471 84.3705 507.268 84.4988C506.08 84.6331 504.876 84.4599 503.655 83.9793ZM504.956 80.6742C505.686 80.9614 506.409 80.9366 507.126 80.6C507.859 80.2691 508.421 79.605 508.814 78.6075C509.206 77.61 509.255 76.7437 508.96 76.0084C508.68 75.279 508.175 74.7708 507.445 74.4836C506.701 74.1905 505.978 74.2152 505.275 74.5578C504.579 74.8854 504.031 75.5554 503.633 76.5678C503.24 77.5653 503.176 78.4258 503.442 79.1493C503.722 79.8787 504.227 80.387 504.956 80.6742Z" fill="white"/>
<path d="M522.797 72.4145L515.78 88.7291L512.01 87.1074L519.028 70.7928L522.797 72.4145Z" fill="white"/>
<path d="M523.652 92.6065C522.465 92.0464 521.514 91.2877 520.798 90.3304C520.097 89.38 519.693 88.3047 519.588 87.1047C519.496 85.9115 519.748 84.6855 520.342 83.4268C520.93 82.1825 521.72 81.2199 522.714 80.5391C523.715 79.8437 524.812 79.4683 526.006 79.4128C527.2 79.3572 528.39 79.6096 529.577 80.1697C530.763 80.7299 531.714 81.4886 532.43 82.4458C533.146 83.4031 533.553 84.489 533.652 85.7035C533.758 86.9035 533.517 88.1257 532.93 89.3699C532.342 90.6142 531.541 91.5806 530.526 92.2691C529.532 92.95 528.431 93.3148 527.222 93.3635C526.028 93.419 524.838 93.1667 523.652 92.6065ZM525.168 89.3945C525.877 89.7293 526.6 89.7523 527.338 89.4637C528.091 89.182 528.696 88.5564 529.153 87.587C529.611 86.6176 529.717 85.7564 529.471 85.0032C529.239 84.2569 528.769 83.7164 528.06 83.3817C527.337 83.0401 526.613 83.0171 525.89 83.3125C525.173 83.5935 524.583 84.2259 524.118 85.2097C523.661 86.1791 523.54 87.0335 523.757 87.773C523.989 88.5193 524.459 89.0598 525.168 89.3945Z" fill="white"/>
<path d="M552.988 92.7308C554.44 93.545 555.344 94.6304 555.702 95.9871C556.074 97.3515 555.822 98.8152 554.945 100.378L551.116 107.201L547.558 105.205L551.116 98.8631C551.539 98.1096 551.662 97.417 551.484 96.7853C551.328 96.1474 550.901 95.6328 550.204 95.2414C549.506 94.8499 548.838 94.75 548.198 94.9416C547.58 95.127 547.06 95.5965 546.637 96.35L543.079 102.692L539.521 100.696L543.079 94.3536C543.502 93.6001 543.624 92.9075 543.447 92.2758C543.291 91.638 542.864 91.1234 542.166 90.7319C541.469 90.3405 540.8 90.2405 540.161 90.4321C539.543 90.6176 539.023 91.087 538.6 91.8405L535.042 98.1825L531.462 96.1744L538.015 84.4951L541.594 86.5032L540.772 87.9684C541.409 87.6835 542.099 87.566 542.842 87.6157C543.592 87.6515 544.337 87.8769 545.077 88.2918C545.956 88.785 546.631 89.4118 547.104 90.1722C547.59 90.9404 547.833 91.7829 547.832 92.6998C548.597 92.285 549.442 92.071 550.366 92.0577C551.291 92.0445 552.165 92.2689 552.988 92.7308Z" fill="white"/>
<path d="M562.785 101.119C563.453 100.818 564.193 100.71 565.004 100.796C565.816 100.882 566.606 101.185 567.374 101.706C568.288 102.325 568.958 103.118 569.386 104.084C569.814 105.051 569.948 106.108 569.788 107.256C569.642 108.413 569.182 109.561 568.411 110.7C567.639 111.839 566.738 112.698 565.708 113.276C564.701 113.85 563.665 114.124 562.6 114.098C561.544 114.059 560.559 113.729 559.645 113.11C558.864 112.58 558.285 111.966 557.909 111.266C557.541 110.553 557.367 109.827 557.386 109.086L556.336 110.635L552.939 108.333L562.902 93.6309L566.299 95.9333L562.785 101.119ZM564.954 108.358C565.528 107.51 565.738 106.686 565.585 105.886C565.453 105.082 565.043 104.446 564.354 103.98C563.679 103.522 562.937 103.376 562.128 103.543C561.332 103.719 560.647 104.231 560.073 105.079C559.498 105.926 559.277 106.752 559.408 107.557C559.553 108.37 559.963 109.005 560.638 109.463C561.314 109.921 562.056 110.066 562.865 109.899C563.683 109.719 564.379 109.205 564.954 108.358Z" fill="white"/>
<path d="M576.594 106.756C576.021 106.32 575.677 105.795 575.56 105.183C575.466 104.568 575.608 104.012 575.986 103.516C576.374 103.007 576.872 102.723 577.481 102.664C578.112 102.602 578.714 102.789 579.286 103.226C579.846 103.653 580.173 104.174 580.267 104.789C580.384 105.401 580.248 105.962 579.86 106.471C579.482 106.967 578.977 107.246 578.346 107.308C577.738 107.367 577.153 107.183 576.594 106.756ZM577.372 109.1L569.251 119.749L565.988 117.26L574.108 106.612L577.372 109.1Z" fill="white"/>
<path d="M574.935 115.68C575.834 114.637 576.816 113.889 577.883 113.436C578.962 112.993 580.023 112.851 581.068 113.012C582.112 113.173 583.052 113.613 583.889 114.334C584.604 114.95 585.103 115.634 585.385 116.384C585.68 117.145 585.769 117.887 585.653 118.61L586.89 117.174L589.999 119.853L581.257 129.998L578.148 127.319L579.386 125.883C578.676 126.094 577.922 126.111 577.126 125.932C576.342 125.763 575.593 125.37 574.878 124.754C574.053 124.044 573.485 123.184 573.172 122.175C572.869 121.154 572.857 120.077 573.136 118.944C573.437 117.81 574.037 116.722 574.935 115.68ZM582.519 122.247C583.188 121.471 583.497 120.671 583.447 119.846C583.409 119.032 583.081 118.359 582.463 117.826C581.845 117.294 581.125 117.064 580.302 117.136C579.502 117.207 578.767 117.63 578.099 118.406C577.43 119.181 577.11 119.982 577.137 120.809C577.187 121.633 577.521 122.312 578.139 122.844C578.757 123.377 579.472 123.602 580.282 123.519C581.105 123.446 581.851 123.022 582.519 122.247Z" fill="white"/>
</svg>
