<svg width="637" height="606" viewBox="0 0 637 606" fill="none" xmlns="http://www.w3.org/2000/svg">
<path fill-rule="evenodd" clip-rule="evenodd" d="M131.036 195.985C41.1598 292.421 13.6798 427.518 113.852 527.677C226.063 639.871 435.148 624.933 552.525 521.388C615.64 465.709 640.384 379.668 635.981 284.668C629.694 149.068 525.678 58.3616 405.257 60.9482C306.204 63.0781 201.848 121.196 131.036 195.985Z" fill="#CD556D"/>
<path fill-rule="evenodd" clip-rule="evenodd" d="M38.1842 148.218C24.4503 213.905 92.491 210.475 124.26 211.247C162.479 212.177 189.923 195.696 178.65 148.762C161.91 79.073 51.9201 82.53 38.1842 148.218Z" fill="#6A63A5"/>
<path fill-rule="evenodd" clip-rule="evenodd" d="M61.7137 239.903C69.8094 213.123 25.6115 190.376 13.3849 197.671C-21.1054 218.245 17.9827 271.821 52.5878 249.221L57.9433 244.912L61.7137 239.903Z" fill="#6A63A5"/>
<path fill-rule="evenodd" clip-rule="evenodd" d="M156.536 376.104C138.051 469.235 143.617 567.027 234.438 561.066L245.632 385.245L156.536 376.104Z" fill="#E1A780"/>
<path fill-rule="evenodd" clip-rule="evenodd" d="M378.545 268.312C461.713 275.3 495.66 314.72 550.405 376.92C568.282 446.957 529.831 483.784 494.329 475.146C490.778 474.282 484.871 468.535 481.488 466.847L417.308 399.198L378.545 268.312Z" fill="#43745F"/>
<path fill-rule="evenodd" clip-rule="evenodd" d="M474.31 571.762C470.519 534.413 443.113 369.672 429.27 298.272L297.039 266.819L264.095 278.487L233.987 309.254C235.185 314.142 221.179 548.27 220.774 590.374C221.048 590.696 221.361 591.005 221.658 591.321C302.284 616.277 396.128 607.791 474.31 571.762Z" fill="#43745F"/>
<path fill-rule="evenodd" clip-rule="evenodd" d="M278.093 274.44C149.796 289.624 146.345 399.581 127.997 463.74C127.997 463.74 167.511 474.939 262.665 460.668L266.964 370.37L278.093 274.44Z" fill="#43745F"/>
<path fill-rule="evenodd" clip-rule="evenodd" d="M295.898 248.956C295.898 248.956 296.105 256.333 295.472 264.235C295.354 265.709 289.191 268.234 289.007 269.701C286.303 291.272 302.542 309.628 326.178 318.857C365.588 327.288 392.394 295.204 383.153 268.232C382.85 267.345 376.536 267.466 376.252 266.532C375.676 264.646 375.15 262.66 374.718 260.583C373.507 254.744 373.223 248.418 373.944 240.283L295.898 248.956Z" fill="#E1A780"/>
<path fill-rule="evenodd" clip-rule="evenodd" d="M374.378 260.276L373.378 247.216C373.378 247.216 319.442 257.145 293.676 242.104C293.885 246.792 295.081 252.77 295.735 258.404C319.837 272.246 348.956 276.33 374.378 260.276Z" fill="#CF745A"/>
<path fill-rule="evenodd" clip-rule="evenodd" d="M280.047 272.289C279.523 270.164 294.121 263.901 294.645 266.033C295.171 268.161 296.402 272.709 297.006 274.677C304.715 299.817 318.549 312.156 332.656 315.445C338.212 316.739 343.848 316.641 349.165 315.385C354.481 314.13 359.477 311.701 363.753 308.338C374.175 300.138 380.061 283.123 375.922 267.044C374.781 262.574 392.017 269.5 392.058 269.703C396.289 291.106 387.706 309.518 373.479 320.71C367.419 325.476 360.318 328.923 352.734 330.715C345.153 332.507 337.084 332.638 329.086 330.772C308.655 326.01 288.958 308.363 280.047 272.289Z" fill="#DB8D1C"/>
<path fill-rule="evenodd" clip-rule="evenodd" d="M311.801 323.979C311.801 323.979 326.471 458.686 337.579 460.82C348.688 462.954 356.304 376.039 366.464 327.631C354.942 318.732 331.065 313.755 311.801 323.979Z" fill="#7F5225"/>
<path fill-rule="evenodd" clip-rule="evenodd" d="M312.733 342.167C320.587 344.358 341.653 348.446 363.386 345.358C376.778 343.455 376.362 323.856 371.883 321.906C360.564 316.973 308.188 308.092 304.725 321.785C303.011 328.572 305.34 340.107 312.733 342.167Z" fill="#AC7A3A"/>
<path fill-rule="evenodd" clip-rule="evenodd" d="M374.478 326.932C374.077 324.388 373.141 322.451 371.883 321.906C360.564 316.973 308.188 308.092 304.725 321.785C304.516 322.615 304.367 323.518 304.281 324.464C320.673 330.823 352.73 331.423 374.478 326.932Z" fill="#7F5225"/>
<path fill-rule="evenodd" clip-rule="evenodd" d="M316.258 345.192C315.443 344.889 315.025 343.982 315.328 343.167C315.631 342.351 316.538 341.934 317.353 342.237C321.703 343.853 329.965 344.604 338.534 344.813C350.254 345.098 362.426 344.361 366.081 343.398C366.921 343.179 367.781 343.681 368.002 344.518C368.224 345.358 367.722 346.218 366.882 346.439C363.015 347.457 350.445 348.244 338.46 347.953C329.576 347.736 320.945 346.931 316.258 345.192Z" fill="#361C00"/>
<path fill-rule="evenodd" clip-rule="evenodd" d="M292.224 392.306C269.307 411.218 250.007 425.601 192.415 472.881C147.803 509.505 195.974 594.567 250.361 550.365C277.161 528.584 307.627 485.095 335.353 430.923C347.266 427.436 359.941 423.69 366.984 416.258C371.22 411.787 371.283 406.085 373.509 403.255C376.71 399.19 376.903 392.636 371.136 386.947C372.549 387.475 376.327 375.296 369.325 372.109C369.299 372.099 378.185 356.321 361.162 352.2C353.488 359.503 326.141 365.125 316.622 357.847C314.799 356.452 314.701 347.029 314.533 344.625C314.533 344.625 302.694 351.314 297.838 358.916C293.457 365.768 292.658 374.7 292.224 392.306Z" fill="#E1A780"/>
<path fill-rule="evenodd" clip-rule="evenodd" d="M355.731 378.722C354.916 379.015 354.016 378.591 353.724 377.774C353.431 376.959 353.855 376.058 354.672 375.767L369.385 370.477C370.2 370.184 371.099 370.608 371.39 371.425C371.685 372.238 371.259 373.139 370.443 373.43L355.731 378.722Z" fill="#361C00"/>
<path fill-rule="evenodd" clip-rule="evenodd" d="M361.307 392.968C360.505 393.295 359.589 392.91 359.263 392.108C358.938 391.305 359.323 390.389 360.126 390.064L371.162 385.548C371.965 385.222 372.881 385.607 373.206 386.41C373.532 387.215 373.147 388.128 372.344 388.454L361.307 392.968Z" fill="#361C00"/>
<path fill-rule="evenodd" clip-rule="evenodd" d="M365.686 408.174C364.891 408.516 363.968 408.15 363.624 407.355C363.282 406.558 363.648 405.637 364.443 405.293L373.305 401.446C374.101 401.104 375.025 401.471 375.367 402.266C375.711 403.06 375.342 403.984 374.55 404.328L365.686 408.174Z" fill="#361C00"/>
<path fill-rule="evenodd" clip-rule="evenodd" d="M365.426 310.507C371.959 310.749 383.487 324.307 366.839 325.658C349.533 327.065 306.261 327.682 304.408 317.734C303.152 310.999 308.663 304.046 315.125 302.884C304.32 288.299 318.205 282.03 328.756 278.892C342.842 274.702 336.375 267.679 329.819 271.999C329.811 262.92 350.281 262.484 350.897 276.052C361.438 274.843 368.354 285.468 363.521 290.556C373.204 293.12 375.553 304.291 365.426 310.507Z" fill="white"/>
<path fill-rule="evenodd" clip-rule="evenodd" d="M365.426 310.507C371.959 310.749 383.487 324.307 366.839 325.658C349.533 327.065 306.261 327.682 304.408 317.734C304.006 315.582 304.295 313.407 305.088 311.406C314.314 318.793 359.935 321.118 370.642 305.342C369.577 307.228 367.865 309.012 365.426 310.507Z" fill="#C4C4C4"/>
<path fill-rule="evenodd" clip-rule="evenodd" d="M341.042 301.6C327.638 301.6 318.14 296.204 314.81 290.064C314.246 289.026 313.857 287.967 313.659 286.906C312.999 287.678 312.45 288.512 312.041 289.405C310.462 292.857 310.949 297.25 315.125 302.884C314.892 302.927 314.658 302.977 314.429 303.034C331.79 309.958 357.181 301.6 341.042 301.6Z" fill="#C4C4C4"/>
<path fill-rule="evenodd" clip-rule="evenodd" d="M360.961 281.149C360.793 281.708 360.543 282.269 360.204 282.828C360.023 283.127 359.814 283.424 359.579 283.719C353.978 290.73 339.511 290.949 339.521 291.076C339.605 292.173 351.741 293.118 361.295 291.309C361.86 291.201 363.728 290.609 363.521 290.553C364.193 289.847 364.64 289.032 364.877 288.155C365.301 286.613 365.084 284.883 364.349 283.22C363.697 281.745 362.634 280.322 361.246 279.134C361.258 279.787 361.17 280.463 360.961 281.149Z" fill="#C4C4C4"/>
<path fill-rule="evenodd" clip-rule="evenodd" d="M224.499 445.87C224.372 446.73 223.575 447.324 222.713 447.197C221.853 447.072 221.259 446.273 221.386 445.413C227.198 405.868 231.331 370.909 231.718 367.632L222.146 322.508C221.966 321.659 222.508 320.823 223.358 320.643C224.208 320.465 225.044 321.007 225.224 321.857L234.837 367.186C234.88 367.362 234.895 367.55 234.874 367.743C234.86 367.845 230.6 404.359 224.499 445.87Z" fill="#361C00"/>
<path fill-rule="evenodd" clip-rule="evenodd" d="M455.245 443.752C455.315 444.618 454.672 445.38 453.803 445.45C452.937 445.521 452.177 444.876 452.105 444.01C450.862 429.074 445.959 397.219 442.287 373.354C439.883 357.728 438.003 345.507 438.003 343.496C438.003 338.638 440.067 313.192 440.073 313.12C440.141 312.252 440.899 311.605 441.765 311.672C442.631 311.74 443.279 312.5 443.211 313.366C443.207 313.438 441.155 338.728 441.155 343.496C441.155 345.28 443.018 357.394 445.402 372.887C449.081 396.795 453.99 428.707 455.245 443.752Z" fill="#361C00"/>
<path fill-rule="evenodd" clip-rule="evenodd" d="M178.226 491.178C177.737 491.894 176.758 492.079 176.041 491.589C175.324 491.1 175.142 490.121 175.63 489.406C180.262 482.601 186.308 476.09 192.667 470.214C201.363 462.18 210.65 455.323 217.667 450.529C218.386 450.039 219.363 450.226 219.852 450.943C220.339 451.659 220.155 452.636 219.438 453.126C212.518 457.855 203.362 464.613 194.797 472.531C188.593 478.259 182.709 484.589 178.226 491.178Z" fill="#361C00"/>
<path fill-rule="evenodd" clip-rule="evenodd" d="M133.482 447.496C132.62 447.398 131.999 446.617 132.097 445.753C132.196 444.891 132.976 444.27 133.84 444.369C148.176 446.007 162.332 447.123 174.962 447.881C195.745 449.13 212.371 449.419 218.973 449.487C219.84 449.493 220.538 450.201 220.53 451.07C220.524 451.936 219.815 452.634 218.947 452.626C212.283 452.561 195.53 452.268 174.776 451.023C162.068 450.259 147.846 449.138 133.482 447.496Z" fill="#361C00"/>
<path fill-rule="evenodd" clip-rule="evenodd" d="M486.082 405.698C477.83 438.702 484.017 460.015 490.206 471.703C496.395 483.393 556.213 481.329 564.465 422.887C572.714 364.443 492.271 398.821 486.082 405.698Z" fill="#361C00"/>
<path fill-rule="evenodd" clip-rule="evenodd" d="M198.252 467.339C204.502 461.951 210.802 457.234 216.116 453.513C216.491 453.21 216.862 452.907 217.231 452.608C209.678 452.509 193.933 452.173 174.776 451.024C166.393 450.521 157.353 449.863 148.047 449.001C143.245 448.557 138.37 448.059 133.482 447.5C133.009 447.447 132.605 447.187 132.357 446.818C130.952 452.724 129.525 458.391 127.995 463.745C127.995 463.745 134.424 465.565 148.336 466.802C159.745 467.814 176.191 468.437 198.252 467.339Z" fill="#DB8D1C"/>
<path fill-rule="evenodd" clip-rule="evenodd" d="M486.051 377.833C474.005 395.339 463.443 425.773 466.685 451.24L481.49 466.847C484.871 468.535 490.778 474.282 494.331 475.146C494.345 475.148 494.36 475.152 494.372 475.156C492.369 474.234 490.927 473.063 490.208 471.705C486.133 464.005 482.057 452.128 482.109 435.486C481.779 433.477 481.568 431.366 481.486 429.154L486.051 377.833Z" fill="#DB8D1C"/>
<path fill-rule="evenodd" clip-rule="evenodd" d="M468.15 450.267C468.25 451.131 467.629 451.912 466.765 452.01C465.901 452.108 465.121 451.488 465.022 450.625C463.646 438.728 465.174 425.838 468.41 413.686C472.129 399.72 478.109 386.697 484.531 377.268C485.019 376.551 486 376.367 486.715 376.856C487.434 377.346 487.616 378.325 487.126 379.04C480.888 388.2 475.072 400.871 471.449 414.486C468.309 426.289 466.822 438.78 468.15 450.267Z" fill="#361C00"/>
<path fill-rule="evenodd" clip-rule="evenodd" d="M481.484 429.154L496.791 257.126L539.893 254.306C540.278 254.281 561.264 331.2 571.549 408.832C580.265 474.613 483.706 489.082 481.484 429.154Z" fill="#E1A780"/>
<path fill-rule="evenodd" clip-rule="evenodd" d="M574.172 212.111C577.662 204.589 580.912 198.033 579.997 194.339C577.384 183.777 563.74 205.496 548.624 222.871C548.624 222.871 554.983 195.15 556.683 177.166C556.873 175.161 556.724 163.289 550.262 167C542.945 171.202 530.446 217.374 529.016 216.514C527.904 215.845 527.662 215.543 527.642 213.907C527.472 199.223 529.483 158.464 520.924 158.085C513.124 157.741 508.999 213.915 508.999 213.915C508.999 213.915 502.374 163.643 493.68 164.905C484.986 166.166 489.426 228.683 492.306 247.32C497.979 284.02 493.913 296.151 520.922 298.158C558.552 300.947 556.007 251.257 574.172 212.111Z" fill="#E1A780"/>
<path fill-rule="evenodd" clip-rule="evenodd" d="M492.093 241.17C492.093 241.17 479.203 212.551 470.628 216.086C464.865 218.64 482.592 292.479 507.789 294.895C532.578 299.79 543.145 244.076 492.093 241.17Z" fill="#E1A780"/>
<path fill-rule="evenodd" clip-rule="evenodd" d="M557.295 230.594C557.983 231.125 558.108 232.112 557.58 232.798C557.049 233.484 556.064 233.611 555.376 233.081C555.315 233.033 534.192 216.461 506.933 219.08C506.068 219.162 505.302 218.527 505.22 217.665C505.139 216.803 505.773 216.035 506.636 215.955C535.142 213.215 557.229 230.543 557.295 230.594Z" fill="#361C00"/>
<path fill-rule="evenodd" clip-rule="evenodd" d="M526.282 272.562C526.139 273.252 525.326 273.688 524.472 273.537C523.615 273.385 523.04 272.703 523.185 272.013C523.202 271.931 529.622 243.702 491.19 240.935C490.323 240.871 489.654 240.249 489.69 239.546C489.727 238.844 490.458 238.326 491.325 238.391C533.36 241.416 526.302 272.474 526.282 272.562Z" fill="#361C00"/>
<path fill-rule="evenodd" clip-rule="evenodd" d="M278.72 36.5422C380.501 -73.6013 545.361 90.675 374.986 234.526L278.72 36.5422Z" fill="#432500"/>
<path fill-rule="evenodd" clip-rule="evenodd" d="M211.867 90.5438C201.174 141.539 222.422 209.78 283.924 234.746L318.015 73.8158L288.8 34.4307C251.704 15.3044 219.258 55.2977 211.867 90.5438Z" fill="#432500"/>
<path fill-rule="evenodd" clip-rule="evenodd" d="M419.833 136.884C427.673 129.069 446.826 127.154 454.68 141.76C462.536 156.375 442.418 178.428 421.715 175.028C401.01 171.63 407.408 149.268 419.833 136.884Z" fill="#E1A780"/>
<path fill-rule="evenodd" clip-rule="evenodd" d="M422.377 182.526C416.597 224.245 386.649 259.178 325.932 255.867C249.173 252.981 241.172 186.626 241.172 186.626C241.172 186.626 192.583 193.591 197.084 161.503C200.511 132.753 234.651 150.448 234.651 150.448C234.651 150.448 232.826 137.095 234 121.706C238.823 58.3676 377.841 52.3834 403.406 86.2266C417.416 104.775 427.736 143.853 422.377 182.526Z" fill="#E1A780"/>
<path fill-rule="evenodd" clip-rule="evenodd" d="M233.825 150.044C233.965 150.11 234.086 150.169 234.192 150.218C234.057 150.259 233.918 150.3 233.782 150.341C233.782 150.341 233.799 150.235 233.825 150.044ZM234.606 150.098C234.544 149.606 234.428 148.613 234.294 147.212C235.812 138.442 240.805 112.82 250.615 90.81C274.052 70.6393 317.736 63.2542 353.066 66.6416C368.998 73.3201 382.957 79.9126 385.39 81.5858C388.861 83.9717 403.975 97.8654 414.652 107.788C416.071 111.618 417.363 115.695 418.502 119.974C405.343 123.086 375.793 127.83 345.855 117.34C305.63 103.245 305.974 72.3043 305.974 72.3043L294.287 75.3988C294.287 75.3988 296.005 83.9943 289.816 104.966C283.7 125.702 259.088 142.739 234.606 150.098Z" fill="#CF745A"/>
<path fill-rule="evenodd" clip-rule="evenodd" d="M210.509 160.252C215.361 152.756 229.076 161.227 232.42 166.383C235.763 171.54 229.199 163.088 223.823 169.025C218.443 174.961 223.678 178.604 223.678 178.604L210.509 160.252Z" fill="#CF745A"/>
<path fill-rule="evenodd" clip-rule="evenodd" d="M209.135 159.365C208.645 160.125 208.862 161.137 209.622 161.628C210.38 162.118 211.394 161.898 211.883 161.141C212.274 160.534 212.745 160.07 213.274 159.725C214.699 158.802 216.637 158.744 218.707 159.215C220.987 159.734 223.391 160.883 225.519 162.259C226.936 163.178 228.214 164.186 229.234 165.167C227.229 164.952 224.859 165.433 222.606 167.924C215.981 175.235 222.709 179.921 222.727 179.935C223.463 180.457 224.485 180.285 225.009 179.55C225.531 178.815 225.359 177.793 224.624 177.269C224.611 177.26 220.901 174.682 225.031 170.123C227.466 167.432 230.389 168.733 231.728 169.331C232.691 169.759 233.33 170.045 234.18 169.492C235.363 168.718 235.206 167.696 233.852 165.585L233.793 165.486C232.574 163.608 230.157 161.362 227.288 159.506C224.874 157.944 222.105 156.631 219.428 156.021C216.54 155.363 213.735 155.509 211.484 156.969C210.593 157.552 209.796 158.341 209.135 159.365Z" fill="#361C00"/>
<path fill-rule="evenodd" clip-rule="evenodd" d="M443.485 144.816C437.145 138.531 425.549 149.727 423.386 155.478C421.219 161.229 425.827 151.574 432.352 156.225C438.871 160.878 434.534 165.558 434.534 165.558L443.485 144.816Z" fill="#CF745A"/>
<path fill-rule="evenodd" clip-rule="evenodd" d="M442.33 145.979C442.973 146.616 444.012 146.612 444.651 145.971C445.288 145.328 445.286 144.288 444.643 143.651C443.789 142.805 442.84 142.207 441.825 141.824C439.308 140.878 436.539 141.33 433.862 142.586C431.378 143.753 428.949 145.629 426.917 147.679C424.523 150.094 422.645 152.801 421.854 154.9C420.939 157.335 420.98 158.39 422.326 158.896C422.407 158.927 422.491 158.949 422.575 158.968C423.376 159.168 423.913 158.773 424.683 158.206C425.864 157.337 428.441 155.445 431.398 157.555C436.403 161.128 433.321 164.444 433.315 164.454C432.707 165.124 432.756 166.16 433.428 166.768C434.097 167.377 435.134 167.328 435.742 166.658C435.758 166.639 441.331 160.627 433.299 154.89C430.563 152.938 428.142 152.977 426.225 153.618C427.015 152.443 428.052 151.183 429.248 149.977C431.025 148.183 433.131 146.551 435.25 145.555C437.18 144.648 439.088 144.286 440.671 144.884C441.249 145.101 441.806 145.459 442.33 145.979Z" fill="#361C00"/>
<path fill-rule="evenodd" clip-rule="evenodd" d="M405.608 72.7571C418.971 84.9755 430.331 106.942 425.314 135.477C420.294 164.01 420.626 124.77 394.11 88.1683C367.597 51.5664 405.608 72.7571 405.608 72.7571Z" fill="#432500"/>
<path fill-rule="evenodd" clip-rule="evenodd" d="M301.62 39.6204C301.62 39.6204 313.788 82.5444 333.02 102.15C349.947 119.408 405.487 120.916 426.106 116.595C429.346 42.4856 358.299 25.5527 301.62 39.6204Z" fill="#432500"/>
<path fill-rule="evenodd" clip-rule="evenodd" d="M283.846 64.4052C287.108 84.6271 281.888 134.203 234.27 150.511C216.575 97.7835 238.579 59.535 283.846 64.4052Z" fill="#432500"/>
<path fill-rule="evenodd" clip-rule="evenodd" d="M320.589 36.153C340.762 52.75 362.868 64.698 384.917 71.6878C393.42 74.383 401.917 76.343 410.289 77.5492C413.468 78.0059 416.63 78.3541 419.765 78.5958C403.861 42.6247 361.111 31.3361 320.589 36.153Z" fill="#69401D"/>
<path fill-rule="evenodd" clip-rule="evenodd" d="M320.589 36.1531C361.111 31.3362 403.861 42.6227 419.765 78.5958C428.707 79.2778 437.458 79.0689 445.867 77.9507C442.752 64.3602 437.143 52.0087 429.676 41.357C407.332 44.0317 381.458 42.3769 356.857 29.6732C340.489 21.219 328.308 13.8012 319.243 7.45239C312.981 10.0329 306.761 13.367 300.652 17.5019C307.019 24.2562 313.689 30.4781 320.589 36.1531Z" fill="#69401D"/>
<path fill-rule="evenodd" clip-rule="evenodd" d="M358.936 175.417C348.292 177.68 339.664 172.529 335.621 170.745C331.579 168.96 338.026 184.336 345.949 185.585C353.875 186.832 368.123 173.461 358.936 175.417Z" fill="#CF745A"/>
<path fill-rule="evenodd" clip-rule="evenodd" d="M347.981 160.972C347.307 161.409 347.115 162.31 347.553 162.983C347.989 163.657 348.89 163.848 349.562 163.412C351.002 162.478 352.571 161.896 354.117 161.656C355.792 161.398 357.443 161.534 358.87 162.052C360.232 162.547 361.391 163.397 362.165 164.591C362.641 165.322 362.974 166.18 363.126 167.165C363.353 168.642 363.075 170.051 362.415 171.257C361.889 172.216 361.117 173.053 360.165 173.699C359.186 174.36 358.024 174.823 356.744 175.022C354.602 175.353 352.104 174.954 349.513 173.535C348.808 173.15 347.924 173.408 347.539 174.112C347.152 174.817 347.41 175.702 348.114 176.087C351.301 177.834 354.442 178.309 357.183 177.887C358.917 177.618 360.482 176.994 361.795 176.105C363.132 175.2 364.22 174.018 364.965 172.654C365.921 170.909 366.323 168.869 365.991 166.725C365.772 165.302 365.289 164.061 364.605 163.006C363.474 161.265 361.805 160.03 359.855 159.324C357.973 158.642 355.829 158.455 353.674 158.789C351.725 159.092 349.761 159.815 347.981 160.972Z" fill="#361C00"/>
<path fill-rule="evenodd" clip-rule="evenodd" d="M369.741 187.711C345.665 191.301 325.981 191.324 311.293 186.181C293.094 179.816 299.935 233.349 347.219 223.674C377.097 217.563 379.917 186.196 369.741 187.711Z" fill="#361C00"/>
<path fill-rule="evenodd" clip-rule="evenodd" d="M349.259 229.818C339.152 233.857 328.025 231.321 323.737 230.25C319.45 229.177 325.834 242.718 336.434 243.12C349.613 241.973 357.977 226.332 349.259 229.818Z" fill="#CF745A"/>
<path fill-rule="evenodd" clip-rule="evenodd" d="M274.88 164.985C265.819 165.957 259.262 173.707 260.241 182.282C261.222 190.859 269.369 197.028 278.429 196.057C287.485 195.084 294.047 187.336 293.068 178.759C292.089 170.186 283.94 164.014 274.88 164.985Z" fill="#CF745A"/>
<path fill-rule="evenodd" clip-rule="evenodd" d="M395.347 162.826C386.285 163.797 379.727 171.546 380.708 180.121C381.687 188.698 389.834 194.867 398.894 193.896C407.953 192.923 414.512 185.174 413.533 176.599C412.552 168.026 404.405 161.853 395.347 162.826Z" fill="#CF745A"/>
<path fill-rule="evenodd" clip-rule="evenodd" d="M364.635 215.384C360.343 219.107 354.61 222.165 347.217 223.676C333.18 226.547 322.707 223.848 315.395 218.802C318.656 199.753 355.198 199.114 364.635 215.384Z" fill="#C20E1A"/>
<path fill-rule="evenodd" clip-rule="evenodd" d="M386.678 135.825C385.818 128.915 379.508 124.004 372.596 124.864L372.561 124.868C365.653 125.728 360.74 132.038 361.598 138.946C362.458 145.854 368.768 150.767 375.678 149.907L375.715 149.903C382.625 149.045 387.538 142.735 386.678 135.825Z" fill="white"/>
<path fill-rule="evenodd" clip-rule="evenodd" d="M362.87 142.188C363.048 143.038 362.505 143.874 361.655 144.054C360.806 144.234 359.972 143.691 359.792 142.842C358.704 137.791 359.63 132.995 361.838 129.255C363.321 126.748 365.379 124.711 367.804 123.377C370.255 122.028 373.069 121.401 376.032 121.731C379.866 122.159 383.911 124.192 387.659 128.354C388.239 129.001 388.187 129.994 387.54 130.576C386.895 131.158 385.9 131.104 385.318 130.459C382.133 126.92 378.793 125.204 375.686 124.858C373.399 124.604 371.218 125.09 369.319 126.136C367.392 127.197 365.745 128.833 364.549 130.857C362.718 133.953 361.957 137.951 362.87 142.188Z" fill="#361C00"/>
<path fill-rule="evenodd" clip-rule="evenodd" d="M389.717 134.064C388.97 128.057 383.481 123.785 377.476 124.532C371.465 125.28 367.195 130.767 367.947 136.773L368.148 138.401C368.895 144.41 374.384 148.68 380.391 147.933C386.399 147.185 390.667 141.699 389.92 135.69L389.717 134.064Z" fill="#361C00"/>
<path fill-rule="evenodd" clip-rule="evenodd" d="M304.256 139.458C303.509 133.451 298.022 129.177 292.013 129.927C286.004 130.674 281.734 136.161 282.484 142.168L282.685 143.796C283.434 149.805 288.921 154.075 294.93 153.327C300.938 152.58 305.209 147.093 304.459 141.084L304.256 139.458Z" fill="white"/>
<path fill-rule="evenodd" clip-rule="evenodd" d="M312.108 138.952C311.361 132.946 305.878 128.671 299.865 129.421C293.858 130.171 289.588 135.655 290.336 141.664L290.541 143.29C291.288 149.301 296.773 153.571 302.782 152.821C308.79 152.072 313.063 146.585 312.313 140.578L312.108 138.952Z" fill="#361C00"/>
<path fill-rule="evenodd" clip-rule="evenodd" d="M284.927 147.028C285.103 147.878 284.557 148.711 283.707 148.887C282.857 149.063 282.025 148.519 281.849 147.669C280.741 142.426 281.71 137.472 283.975 133.693C285.402 131.309 287.352 129.386 289.633 128.143C291.948 126.879 294.592 126.318 297.371 126.679C301.024 127.152 304.877 129.214 308.451 133.376C309.014 134.035 308.938 135.028 308.278 135.592C307.619 136.155 306.626 136.079 306.063 135.42C303.04 131.901 299.892 130.171 296.976 129.794C294.878 129.521 292.882 129.947 291.135 130.9C289.351 131.872 287.813 133.398 286.67 135.305C284.79 138.444 283.991 142.598 284.927 147.028Z" fill="#361C00"/>
<path fill-rule="evenodd" clip-rule="evenodd" d="M310.349 132.843C310.115 130.957 308.395 129.618 306.511 129.853C304.625 130.089 303.287 131.809 303.523 133.693L303.582 134.203C303.818 136.089 305.538 137.427 307.424 137.191C309.307 136.955 310.648 135.237 310.412 133.353L310.349 132.843Z" fill="white"/>
<path fill-rule="evenodd" clip-rule="evenodd" d="M387.958 127.957C387.722 126.07 386.002 124.731 384.116 124.967C382.232 125.202 380.892 126.922 381.128 128.807L381.189 129.316C381.425 131.203 383.145 132.54 385.029 132.307C386.916 132.071 388.253 130.351 388.017 128.469L387.958 127.957Z" fill="white"/>
<path fill-rule="evenodd" clip-rule="evenodd" d="M366.433 100.976C371.308 95.4078 378.978 99.0942 384.589 102.588C386.027 103.487 388.689 106.373 387.583 107.661C386.477 108.947 386.485 108.042 367.761 108.271C362.538 108.335 364.494 103.196 366.433 100.976Z" fill="#361C00"/>
<path fill-rule="evenodd" clip-rule="evenodd" d="M299.599 106.481C294.051 101.585 286.92 106.223 281.802 110.412C280.491 111.489 278.222 114.692 279.484 115.826C280.747 116.961 280.62 116.062 299.22 113.887C304.408 113.279 301.809 108.433 299.599 106.481Z" fill="#361C00"/>
<path fill-rule="evenodd" clip-rule="evenodd" d="M366.618 187.537C344.54 190.554 326.213 190.711 311.996 186.581C312.002 189.608 312.456 193.022 314.158 195.057C317.746 199.342 360.441 198.613 363.898 196.476C367.357 194.342 366.749 190.748 366.618 187.537Z" fill="white"/>
</svg>
