<svg width="1920" height="237" viewBox="0 0 1920 237" fill="none" xmlns="http://www.w3.org/2000/svg">
<path fill-rule="evenodd" clip-rule="evenodd" d="M257.889 0.00195312C226.981 82.6121 127.364 35.8235 89.3972 83.7181C49.4376 134.128 143.622 183.972 44.6481 224.256C39.0039 226.554 15.0647 232.366 0 236.243V0.00195312H257.889Z" fill="#CD556D"/>
<mask id="mask0_42_3913" style="mask-type:luminance" maskUnits="userSpaceOnUse" x="425" y="0" width="328" height="152">
<path d="M752.041 0.00195312H425.838V151.263H752.041V0.00195312Z" fill="white"/>
</mask>
<g mask="url(#mask0_42_3913)">
<path fill-rule="evenodd" clip-rule="evenodd" d="M560.287 37.6582C560.287 37.6582 521.529 62.1625 515.044 91.3711C508.562 120.58 524.181 128.247 521.704 141.738C549.007 99.1842 549.182 80.8321 560.287 37.6582Z" fill="#E6B595"/>
<path fill-rule="evenodd" clip-rule="evenodd" d="M574.019 21.0736C574.019 21.0736 537.926 13.8011 513.413 29.4827C488.898 45.1663 493.472 56.8522 482.394 64.4134C499.476 59.7972 509.178 60.8949 520.235 55.6111C537.68 47.2737 551.404 34.6887 574.019 21.0736Z" fill="#E6B595"/>
<path fill-rule="evenodd" clip-rule="evenodd" d="M573.995 21.0737C573.995 21.0737 605.449 26.2081 605.096 48.4391C604.744 70.6701 592.153 85.5837 591.304 96.0633C582.359 86.3619 575.48 78.3522 573.031 69.9656C569.164 56.7376 574.904 40.8001 573.995 21.0737Z" fill="#E6B595"/>
<path fill-rule="evenodd" clip-rule="evenodd" d="M609.479 -8.29272C609.479 -8.29272 578.926 -24.5989 551.467 -14.8934C524.008 -5.18795 524.38 7.72673 511.816 12.5907C528.899 12.1893 537.388 15.7078 549.195 13.1335C567.815 9.07227 584.428 -0.196975 609.479 -8.29272Z" fill="#E6B595"/>
<path fill-rule="evenodd" clip-rule="evenodd" d="M609.542 -8.24756C609.542 -8.24756 640.998 -3.11322 640.643 19.1178C640.291 41.3489 627.7 56.2624 626.851 66.742C617.906 57.0406 611.027 49.033 608.578 40.6443C604.711 27.4184 610.451 11.4788 609.542 -8.24756Z" fill="#E6B595"/>
<path fill-rule="evenodd" clip-rule="evenodd" d="M647.339 -26.7349C647.339 -26.7349 671.578 -22.7781 671.303 -5.64866C671.03 11.4808 661.33 22.9721 660.675 31.0474C653.783 23.5722 648.48 17.3995 646.596 10.9401C643.62 0.745198 648.043 -11.5346 647.339 -26.7349Z" fill="#E6B595"/>
<path fill-rule="evenodd" clip-rule="evenodd" d="M690.48 -38.6377C690.48 -38.6377 711.298 -28.6189 705.473 -11.4259C699.652 5.76704 687.066 14.9318 683.842 22.9068C679.989 13.658 677.162 6.12134 677.542 -0.860287C678.145 -11.8724 686.173 -23.1466 690.48 -38.6377Z" fill="#E6B595"/>
<path fill-rule="evenodd" clip-rule="evenodd" d="M617.821 -64.6187C616.57 -64.7785 615.729 -65.6673 615.942 -66.6053C616.155 -67.5433 617.343 -68.1741 618.594 -68.0143C618.733 -67.9959 667.092 -61.9236 692.894 -40.6449C693.227 -40.3684 693.421 -40.0325 693.475 -39.6884C693.492 -39.5738 699.979 -0.350464 687.326 17.2521C686.725 18.0897 685.335 18.4031 684.218 17.9525C683.102 17.5019 682.684 16.4595 683.285 15.6219C694.406 0.143102 689.715 -33.9868 689 -38.7279C664.148 -58.7942 617.955 -64.6003 617.821 -64.6187Z" fill="#E6B595"/>
<path fill-rule="evenodd" clip-rule="evenodd" d="M746.782 -55.7571C748 -56.0172 749.272 -55.4868 749.619 -54.5713C749.966 -53.6559 749.259 -52.7036 748.038 -52.4435C747.852 -52.4025 683.569 -38.6686 648.155 -25.4672C626.608 -17.435 599.878 -3.0498 576.089 22.0382C558.272 40.8266 542.11 65.6176 530.993 98.2422C530.682 99.1659 529.431 99.7229 528.203 99.4874C526.971 99.2539 526.228 98.316 526.542 97.3923C537.803 64.3273 554.233 39.1533 572.351 20.0434C596.667 -5.59751 624.044 -20.3206 646.126 -28.5535C681.944 -41.9024 746.594 -55.7162 746.782 -55.7571Z" fill="#E6B595"/>
<path fill-rule="evenodd" clip-rule="evenodd" d="M498.933 55.5416C497.895 56.0884 496.467 55.902 495.736 55.1238C495.006 54.3476 495.255 53.2724 496.293 52.7256C496.456 52.6375 554.097 22.1039 573.812 19.4681C574.948 19.3186 576.032 19.8224 576.384 20.6171C577.28 22.3333 593.772 54.4377 592.32 85.9585C592.279 86.9067 591.222 87.6522 589.958 87.6235C588.691 87.5928 587.7 86.8002 587.738 85.852C589.021 58.0258 575.961 29.659 572.766 23.175C552.453 27.1911 499.091 55.4576 498.933 55.5416Z" fill="#E6B595"/>
<path fill-rule="evenodd" clip-rule="evenodd" d="M526.854 8.55845C525.723 8.98853 524.339 8.65266 523.763 7.80479C523.189 6.95692 523.637 5.91858 524.768 5.48645C524.926 5.42706 578.989 -15.4769 610.167 -10.0026C610.981 -9.86126 611.59 -9.4107 611.83 -8.85364C612.767 -6.98791 632.061 31.793 627.87 52.3734C627.681 53.3134 626.51 53.9626 625.257 53.8213C624 53.68 623.138 52.8014 623.326 51.8614C627.081 33.4294 610.825 -0.931977 607.934 -6.83841C578.219 -11.2928 527.004 8.50111 526.854 8.55845Z" fill="#E6B595"/>
<path fill-rule="evenodd" clip-rule="evenodd" d="M565.874 -32.2892C564.623 -32.1356 563.444 -32.7726 563.241 -33.7105C563.039 -34.6485 563.886 -35.5333 565.137 -35.6848C565.281 -35.7032 615.923 -42.1954 648.851 -29.209C649.343 -29.0145 649.701 -28.7073 649.897 -28.353H649.903C649.96 -28.2547 669.295 5.97765 662.253 25.235C661.92 26.1504 660.661 26.6891 659.443 26.4413C658.223 26.1914 657.502 25.2493 657.835 24.3339C663.943 7.62014 648.417 -21.9673 645.979 -26.4422C614.413 -38.5049 566.016 -32.3056 565.874 -32.2892Z" fill="#E6B595"/>
</g>
<path fill-rule="evenodd" clip-rule="evenodd" d="M1129.42 66.1781C1125.41 64.1864 1120 65.0084 1117.35 68.0141C1114.69 71.0215 1115.79 75.0741 1119.8 77.0648C1123.81 79.0565 1129.21 78.2345 1131.86 75.2289C1134.52 72.2235 1133.43 68.1699 1129.42 66.1781Z" fill="#E6B595"/>
<path fill-rule="evenodd" clip-rule="evenodd" d="M1096.03 40.5053C1087.37 36.2052 1075.71 37.977 1069.98 44.4647C1064.25 50.9542 1066.61 59.6983 1075.26 63.9984C1083.91 68.2974 1095.57 66.5267 1101.31 60.0372C1107.04 53.5523 1104.68 44.8043 1096.03 40.5053Z" fill="#E6B595"/>
<path fill-rule="evenodd" clip-rule="evenodd" d="M137.969 148.398C137.751 144.793 133.682 142.006 128.876 142.168C124.073 142.332 120.354 145.383 120.572 148.988C120.788 152.59 124.859 155.379 129.663 155.218C134.468 155.054 138.185 152 137.969 148.398Z" fill="#E6B595"/>
<path fill-rule="evenodd" clip-rule="evenodd" d="M145.932 113.031C145.462 105.257 136.678 99.2376 126.309 99.5899C115.941 99.9422 107.919 106.531 108.389 114.305C108.855 122.081 117.643 128.1 128.008 127.748C138.376 127.396 146.399 120.807 145.932 113.031Z" fill="#E6B595"/>
<path fill-rule="evenodd" clip-rule="evenodd" d="M185.962 73.101C185.747 69.4965 181.675 66.7092 176.872 66.871C172.066 67.0328 168.35 70.0863 168.566 73.6908C168.784 77.2932 172.853 80.0826 177.658 79.9208C182.462 79.757 186.183 76.7034 185.962 73.101Z" fill="#E6B595"/>
<path fill-rule="evenodd" clip-rule="evenodd" d="M1717.06 103.481C1721.87 103.317 1725.59 100.266 1725.37 96.6612C1725.15 93.0567 1721.08 90.2673 1716.28 90.4312C1711.47 90.595 1707.75 93.6465 1707.97 97.251C1708.19 100.853 1712.26 103.643 1717.06 103.481Z" fill="#E6B595"/>
<path fill-rule="evenodd" clip-rule="evenodd" d="M1764.22 109.451C1774.59 109.101 1782.61 102.51 1782.14 94.7359C1781.67 86.9597 1772.89 80.9427 1762.52 81.2929C1752.15 81.6451 1744.13 88.2335 1744.6 96.0098C1745.07 103.784 1753.85 109.803 1764.22 109.451Z" fill="#E6B595"/>
<path fill-rule="evenodd" clip-rule="evenodd" d="M1817.46 139.476C1822.26 139.313 1825.98 136.261 1825.76 132.657C1825.55 129.054 1821.48 126.265 1816.67 126.427C1811.87 126.59 1808.15 129.642 1808.37 133.246C1808.58 136.851 1812.65 139.64 1817.46 139.476Z" fill="#E6B595"/>
<path fill-rule="evenodd" clip-rule="evenodd" d="M1920 184.586C1817.41 162.464 1875.51 91.1606 1816.04 63.9877C1753.44 35.3853 1691.54 102.799 1641.51 31.957C1638.66 27.9163 1631.44 10.7827 1626.63 0H1920V184.586Z" fill="#6A63A5"/>
</svg>
