<svg width="1920" height="298" viewBox="0 0 1920 298" fill="none" xmlns="http://www.w3.org/2000/svg">
<mask id="mask0_42_3782" style="mask-type:luminance" maskUnits="userSpaceOnUse" x="0" y="0" width="418" height="298">
<path d="M417.09 0H0V297.998H417.09V0Z" fill="white"/>
</mask>
<g mask="url(#mask0_42_3782)">
<path fill-rule="evenodd" clip-rule="evenodd" d="M82.2324 120.705C82.2324 120.705 67.9002 86.3458 83.9669 60.8585C100.031 35.3731 118.703 35.4284 126.554 23.8613C118.053 67.9466 104.707 82.4423 82.2324 120.705Z" fill="#E6B595"/>
<path fill-rule="evenodd" clip-rule="evenodd" d="M81.4976 139.09C81.4976 139.09 46.029 130.749 37.0997 108.872C28.1677 86.9952 40.5796 79.5896 36.8921 69.3291C47.7526 79.6121 56.6546 82.5285 62.0029 90.9908C70.435 104.34 72.6393 119.581 81.4976 139.09Z" fill="#E6B595"/>
<path fill-rule="evenodd" clip-rule="evenodd" d="M81.4783 139.08C81.4783 139.08 111.506 147.298 127.556 129.683C143.606 112.07 144.063 95.4428 151.061 86.876C136.458 91.017 124.83 94.6318 116.622 100.27C103.669 109.164 96.7419 123.93 81.4783 139.08Z" fill="#E6B595"/>
<path fill-rule="evenodd" clip-rule="evenodd" d="M89.5033 175.989C89.5033 175.989 52.0134 176.904 36.2335 158.579C20.4535 140.253 30.2569 130.247 23.3462 121.53C37.3069 128.5 46.9792 129.042 54.9388 135.661C67.4983 146.108 74.5483 159.867 89.5033 175.989Z" fill="#E6B595"/>
<path fill-rule="evenodd" clip-rule="evenodd" d="M89.5881 175.977C89.5881 175.977 119.616 184.193 135.666 166.58C151.716 148.965 152.172 132.34 159.171 123.771C144.568 127.91 132.94 131.529 124.732 137.167C111.779 146.059 104.852 160.825 89.5881 175.977Z" fill="#E6B595"/>
<path fill-rule="evenodd" clip-rule="evenodd" d="M107.13 205.515C107.13 205.515 70.9945 216.824 48.9867 204.302C26.9762 191.779 32.8818 179.796 22.991 173.672C39.1014 176.216 48.7081 174.014 58.8584 177.91C74.8705 184.054 86.7253 194.793 107.13 205.515Z" fill="#E6B595"/>
<path fill-rule="evenodd" clip-rule="evenodd" d="M107.545 205.232C107.545 205.232 130.681 211.564 143.049 197.992C155.415 184.422 155.764 171.61 161.159 165.009C149.911 168.2 140.951 170.987 134.622 175.329C124.644 182.182 119.307 193.558 107.545 205.232Z" fill="#E6B595"/>
<path fill-rule="evenodd" clip-rule="evenodd" d="M134.478 231.76C134.478 231.76 102.642 251.285 77.0232 244.963C51.4016 238.643 53.3519 225.946 41.6802 222.64C58.3123 221.053 67.0313 216.619 78.2442 217.768C95.9307 219.584 111.014 226.736 134.478 231.76Z" fill="#E6B595"/>
<path fill-rule="evenodd" clip-rule="evenodd" d="M134.797 231.393C134.797 231.393 159.539 231.627 167.319 215.845C175.104 200.061 171.334 187.955 174.508 180.429C164.492 186.196 156.589 191.023 151.776 196.659C144.18 205.55 142.593 217.541 134.797 231.393Z" fill="#E6B595"/>
<path fill-rule="evenodd" clip-rule="evenodd" d="M53.2535 226.589C52.0817 226.226 51.5244 225.223 52.0052 224.344C52.4887 223.466 53.8271 223.048 54.9989 223.408C55.1246 223.447 97.9956 236.895 133.541 230.787C137.602 227.359 166.603 202.375 168.69 185.924C168.81 184.978 169.927 184.283 171.186 184.374C172.448 184.464 173.374 185.301 173.254 186.247C170.864 205.071 136.575 233.409 136.477 233.491L136.472 233.487C136.174 233.737 135.77 233.925 135.3 234.009C98.1622 240.679 53.3846 226.628 53.2535 226.589Z" fill="#E6B595"/>
<path fill-rule="evenodd" clip-rule="evenodd" d="M172.642 264.567C173.497 265.269 173.426 266.359 172.489 267C171.55 267.641 170.099 267.588 169.244 266.885C169.116 266.781 125.311 230.738 105.223 206.273C92.8332 191.183 80.7981 168.919 79.3532 139.254C78.277 117.154 83.0789 90.9457 98.0012 60.5411C98.4382 59.6482 99.7603 59.1915 100.948 59.5171C102.139 59.8448 102.751 60.8361 102.314 61.7269C87.6133 91.6789 82.8796 117.443 83.9339 139.131C85.3434 168.086 97.0588 189.776 109.121 204.466C128.966 228.627 172.517 264.463 172.642 264.567Z" fill="#E6B595"/>
<path fill-rule="evenodd" clip-rule="evenodd" d="M39.9157 84.0008C39.4295 83.1222 39.984 82.1146 41.1558 81.7501C42.3276 81.3855 43.6715 81.7992 44.1577 82.6799C44.2287 82.8068 68.012 125.868 81.9837 136.88C89.2795 133.102 121.167 115.862 140.605 93.4277C141.296 92.6311 142.713 92.4058 143.776 92.9239C144.838 93.44 145.139 94.505 144.451 95.3017C121.896 121.33 83.1036 140.47 82.9916 140.526L82.9889 140.524C82.1421 140.943 80.9921 140.904 80.2 140.37C65.652 130.601 39.9922 84.1339 39.9157 84.0008Z" fill="#E6B595"/>
<path fill-rule="evenodd" clip-rule="evenodd" d="M28.9649 132.242C28.3175 131.427 28.6699 130.37 29.757 129.885C30.8442 129.397 32.2509 129.663 32.901 130.476C32.9829 130.581 61.1912 166.112 89.2957 174.158C95.9306 170.707 134.898 149.978 145.316 134.03C145.871 133.176 147.245 132.823 148.381 133.239C149.517 133.657 149.987 134.685 149.433 135.537C137.504 153.803 91.0494 177.433 90.9155 177.501C90.3364 177.798 89.5825 177.89 88.8669 177.703C58.8285 169.866 29.055 132.348 28.9649 132.242Z" fill="#E6B595"/>
<path fill-rule="evenodd" clip-rule="evenodd" d="M32.4015 180.351C31.4482 179.725 31.3526 178.639 32.1857 177.924C33.0216 177.21 34.4693 177.138 35.4226 177.763C35.5264 177.832 71.3965 201.581 106.66 204.38C111.899 201.855 146.68 184.632 153.861 169.126C154.273 168.229 155.576 167.754 156.773 168.061C157.969 168.368 158.605 169.347 158.196 170.242C149.895 188.162 108.559 207.551 108.441 207.606C108.026 207.803 107.526 207.901 107.004 207.862C70.0007 205.249 32.5108 180.421 32.4015 180.351Z" fill="#E6B595"/>
<path fill-rule="evenodd" clip-rule="evenodd" d="M240.195 344.027C240.195 344.027 188.614 404.953 114.896 364.163C158.542 363.835 187.018 351.42 203.211 341.088C211.689 335.677 222.984 326.295 204.705 334.584C134.923 366.223 76.477 373.629 70.0962 299.684C81.7707 301.951 94.9803 305.275 113.038 305.711C149.856 306.6 191.853 302.125 177.283 298.735C171.375 297.359 125.254 298.543 109.812 296.382C50.4895 288.076 66.7392 250.472 88.2061 206.154C127.737 244.175 176.013 237.203 176.013 237.203C145.647 234.326 91.3255 193.157 113.8 167.039C130.301 147.861 151.678 131.406 178.373 120.039C248.669 117.782 260.103 160.516 239.226 201.437C239.226 201.437 259.103 187.361 264.148 146.137C360.169 203.522 351.966 220.696 274.416 277.227C252.545 293.171 273.023 309.457 297.527 290.556C312.955 278.655 336.978 245.053 345.186 220.326C380.838 269.336 392.906 323.67 352.854 351.725C314.372 378.677 246.399 349.159 240.195 344.027Z" fill="#43745F"/>
<path fill-rule="evenodd" clip-rule="evenodd" d="M175.98 120.289C175.735 118.999 176.934 117.805 178.655 117.621C180.375 117.436 181.968 118.335 182.214 119.624C182.361 120.383 233.02 384.58 289.491 416.055C290.887 416.829 291.179 418.306 290.144 419.351C289.111 420.397 287.142 420.614 285.749 419.84C227.139 387.18 176.125 121.057 175.98 120.289Z" fill="#548E77"/>
<path fill-rule="evenodd" clip-rule="evenodd" d="M138.919 169.535C138.578 168.708 139.201 167.828 140.307 167.574C141.41 167.318 142.585 167.784 142.924 168.614C156.431 201.56 203.757 217.801 203.894 217.848C204.945 218.217 205.401 219.152 204.912 219.939C204.421 220.729 203.173 221.071 202.121 220.703C201.979 220.654 152.986 203.844 138.919 169.535Z" fill="#548E77"/>
<path fill-rule="evenodd" clip-rule="evenodd" d="M286.677 183.06C287.09 182.249 288.303 181.846 289.379 182.155C290.461 182.465 290.999 183.374 290.586 184.181C271.531 221.36 215.095 260.196 214.934 260.311C214.088 260.899 212.763 260.862 211.979 260.225C211.195 259.588 211.244 258.597 212.094 258.009C212.255 257.896 267.983 219.546 286.677 183.06Z" fill="#548E77"/>
<path fill-rule="evenodd" clip-rule="evenodd" d="M90.0443 252.541C89.0473 252.098 88.7168 251.134 89.3041 250.386C89.8941 249.639 91.1834 249.391 92.1776 249.831C136.106 269.33 215.727 272.656 215.956 272.662C217.114 272.714 217.994 273.459 217.928 274.327C217.86 275.194 216.866 275.855 215.71 275.804C215.478 275.794 134.849 272.429 90.0443 252.541Z" fill="#548E77"/>
<path fill-rule="evenodd" clip-rule="evenodd" d="M356.924 280.199C357.495 279.445 358.776 279.181 359.781 279.609C360.786 280.037 361.141 280.998 360.568 281.751C349.729 296.061 332.638 306.547 314.902 313.624C290.799 323.242 265.336 326.574 252.703 324.665L231.416 321.446C230.283 321.276 229.548 320.448 229.775 319.601C230.001 318.751 231.102 318.198 232.236 318.368L253.522 321.587C265.413 323.385 289.685 320.129 312.927 310.856C330.048 304.021 346.519 293.933 356.924 280.199Z" fill="#548E77"/>
<path fill-rule="evenodd" clip-rule="evenodd" d="M99.4569 333.576C98.3834 333.25 97.8644 332.333 98.2988 331.526C98.7358 330.721 99.9595 330.332 101.033 330.66C110.927 333.662 125.862 334.547 142.109 332.734C156.524 331.124 171.91 327.385 185.672 321.112C214.983 307.747 220.998 296.544 221.015 296.511C221.457 295.708 222.686 295.329 223.757 295.663C224.828 295.995 225.333 296.915 224.891 297.72C224.869 297.754 218.343 309.893 187.854 323.793C173.571 330.305 157.633 334.18 142.716 335.847C125.739 337.744 110.006 336.777 99.4569 333.576Z" fill="#548E77"/>
</g>
<mask id="mask1_42_3782" style="mask-type:luminance" maskUnits="userSpaceOnUse" x="1504" y="12" width="416" height="286">
<path d="M1920 12.1709H1504.46V297.998H1920V12.1709Z" fill="white"/>
</mask>
<g mask="url(#mask1_42_3782)">
<path fill-rule="evenodd" clip-rule="evenodd" d="M1839.83 135.571C1839.83 135.571 1862.32 101.494 1852.7 72.7752C1843.09 44.0541 1824.68 41.7029 1819.77 28.5957C1817.4 75.7837 1827.01 92.6633 1839.83 135.571Z" fill="#E6B595"/>
<path fill-rule="evenodd" clip-rule="evenodd" d="M1836.07 154.887C1836.07 154.887 1873.04 150.744 1887.17 129.023C1901.3 107.304 1890.88 97.9592 1897.01 87.709C1883.81 97.0581 1874.33 98.9566 1867 107.114C1855.44 119.981 1849.55 135.632 1836.07 154.887Z" fill="#E6B595"/>
<path fill-rule="evenodd" clip-rule="evenodd" d="M1836.09 154.879C1836.09 154.879 1804.51 159.594 1792.99 139.108C1781.47 118.622 1785.07 101.179 1780.27 91.3135C1793.65 97.5271 1804.22 102.811 1810.93 109.766C1821.52 120.735 1824.75 137.068 1836.09 154.879Z" fill="#E6B595"/>
<path fill-rule="evenodd" clip-rule="evenodd" d="M1819.19 192.432C1819.19 192.432 1855.9 198.229 1875.91 181.106C1895.92 163.985 1888.7 152.256 1897.63 144.033C1882.19 149.52 1872.52 148.836 1863.07 154.732C1848.15 164.034 1837.85 177.508 1819.19 192.432Z" fill="#E6B595"/>
<path fill-rule="evenodd" clip-rule="evenodd" d="M1819.11 192.407C1819.11 192.407 1787.53 197.122 1776.01 176.635C1764.49 156.149 1768.1 138.704 1763.29 128.841C1776.66 135.055 1787.24 140.339 1793.95 147.294C1804.54 158.267 1807.77 174.596 1819.11 192.407Z" fill="#E6B595"/>
<path fill-rule="evenodd" clip-rule="evenodd" d="M1794.63 221.028C1794.63 221.028 1827.47 237.518 1852.2 227.264C1876.93 217.012 1874.04 203.722 1885.27 198.598C1868.78 199.176 1859.85 195.637 1848.9 198.395C1831.64 202.753 1817.34 212.453 1794.63 221.028Z" fill="#E6B595"/>
<path fill-rule="evenodd" clip-rule="evenodd" d="M1794.29 220.68C1794.29 220.68 1769.96 224.313 1761.08 208.527C1752.21 192.741 1754.98 179.3 1751.28 171.7C1761.58 176.488 1769.73 180.557 1774.9 185.915C1783.07 194.371 1785.55 206.956 1794.29 220.68Z" fill="#E6B595"/>
<path fill-rule="evenodd" clip-rule="evenodd" d="M1761.29 244.94C1761.29 244.94 1787.89 269.465 1814.67 266.162C1841.45 262.86 1842.63 249.331 1854.93 247.383C1838.94 243.576 1831.42 237.813 1820.1 237.569C1802.24 237.184 1785.64 242.716 1761.29 244.94Z" fill="#E6B595"/>
<path fill-rule="evenodd" clip-rule="evenodd" d="M1761.07 244.516C1761.07 244.516 1736.64 241.567 1732.82 224.061C1729 206.553 1735.66 194.381 1734.37 186.105C1742.83 193.429 1749.44 199.493 1752.81 206.008C1758.13 216.285 1756.77 229.023 1761.07 244.516Z" fill="#E6B595"/>
<path fill-rule="evenodd" clip-rule="evenodd" d="M1841.55 246.57C1842.79 246.347 1844.02 246.914 1844.32 247.836C1844.62 248.758 1843.86 249.687 1842.63 249.913C1842.5 249.937 1794.92 258.854 1759.93 247.076C1759.46 246.916 1759.09 246.65 1758.85 246.333C1757.83 245.022 1732 211.879 1734.19 192.333C1734.29 191.383 1735.4 190.676 1736.67 190.756C1737.93 190.832 1738.87 191.665 1738.77 192.614C1736.81 210.147 1759.29 240.025 1762.47 244.154C1795.96 255.113 1841.42 246.593 1841.55 246.57Z" fill="#E6B595"/>
<path fill-rule="evenodd" clip-rule="evenodd" d="M1718.55 277.069C1717.57 277.672 1716.13 277.565 1715.32 276.834C1714.52 276.103 1714.66 275.017 1715.64 274.415C1715.79 274.323 1767.39 242.495 1792.86 219.764C1808.34 205.942 1825.2 184.746 1833.65 154.624C1839.98 132.053 1841.61 104.474 1834.42 71.2393C1834.22 70.3033 1835.07 69.4206 1836.32 69.2732C1837.57 69.1237 1838.75 69.7627 1838.95 70.7007C1846.23 104.392 1844.58 132.386 1838.14 155.322C1829.5 186.118 1812.24 207.814 1796.38 221.972C1770.67 244.928 1718.7 276.975 1718.55 277.069Z" fill="#E6B595"/>
<path fill-rule="evenodd" clip-rule="evenodd" d="M1886.57 100.796C1887.23 99.9851 1888.64 99.7291 1889.72 100.223C1890.81 100.718 1891.15 101.777 1890.49 102.588C1890.38 102.717 1853.79 147.972 1837.11 156.295C1836.16 156.768 1834.91 156.637 1834.16 156.027C1832.64 154.884 1800.22 130.31 1784.71 100.88C1784.25 99.9954 1784.83 98.9939 1786.01 98.6437C1787.19 98.2935 1788.52 98.7277 1788.99 99.6145C1802.64 125.518 1829.72 147.605 1836.1 152.59C1852.58 142.823 1886.47 100.921 1886.57 100.796Z" fill="#E6B595"/>
<path fill-rule="evenodd" clip-rule="evenodd" d="M1885.99 152.237C1886.8 151.504 1888.24 151.4 1889.22 152.002C1890.2 152.604 1890.34 153.687 1889.53 154.421C1889.42 154.523 1850.97 189.884 1819.47 194.205C1818.69 194.312 1817.93 194.109 1817.41 193.712C1817.29 193.623 1777.3 162.924 1770.01 142.317C1769.69 141.399 1770.42 140.457 1771.65 140.216C1772.87 139.974 1774.13 140.523 1774.45 141.442C1780.82 159.461 1814.05 186.105 1819.83 190.642C1849.47 185.821 1885.89 152.336 1885.99 152.237Z" fill="#E6B595"/>
<path fill-rule="evenodd" clip-rule="evenodd" d="M1871.96 201.373C1873.02 200.857 1874.44 201.082 1875.13 201.879C1875.82 202.676 1875.51 203.738 1874.45 204.257C1874.33 204.316 1831.33 225.443 1794.23 223.401C1793.6 223.369 1793.05 223.147 1792.66 222.818C1790.19 221.034 1756.59 196.546 1752.92 177.497C1752.75 176.555 1753.62 175.683 1754.88 175.552C1756.13 175.419 1757.29 176.072 1757.47 177.012C1760.77 194.16 1790.7 216.598 1795.36 220.004C1830.76 221.611 1871.84 201.432 1871.96 201.373Z" fill="#E6B595"/>
<path fill-rule="evenodd" clip-rule="evenodd" d="M1656.46 327.065C1656.46 327.065 1696.9 392.554 1777.14 359.395C1733.93 354.76 1707.88 339.644 1693.64 327.802C1686.19 321.603 1676.64 311.185 1693.3 321.206C1756.92 359.46 1813.56 372.57 1832.87 299.898C1820.9 300.994 1807.22 302.985 1789.25 301.635C1752.59 298.883 1711.74 290.301 1726.79 288.376C1732.88 287.598 1778.4 293.324 1794.08 292.704C1854.35 290.326 1844.84 251.447 1831.35 205.393C1785.48 239.181 1738.85 227.506 1738.85 227.506C1769.46 227.649 1830.53 192.204 1812.85 164.095C1799.85 143.454 1781.55 125.032 1757.09 111.13C1687.8 101.955 1668.96 143.185 1682.47 185.812C1682.47 185.812 1665.24 169.897 1667.48 128.532C1562.22 175.939 1567.33 193.775 1634.28 257.468C1653.16 275.431 1630 289.556 1609.03 268.398C1595.83 255.076 1577.91 219.398 1574.12 194.076C1530.17 239.138 1508.67 291.811 1543.45 323.575C1576.84 354.093 1649.41 331.544 1656.46 327.065Z" fill="#75B59E"/>
<path fill-rule="evenodd" clip-rule="evenodd" d="M1753.35 110.344C1753.82 109.088 1755.55 108.357 1757.22 108.707C1758.9 109.059 1759.87 110.364 1759.4 111.617C1759.12 112.361 1661.82 371.132 1597.99 397.723C1596.48 398.356 1594.56 397.946 1593.72 396.81C1592.88 395.673 1593.42 394.237 1594.94 393.607C1656.46 367.978 1753.07 111.081 1753.35 110.344Z" fill="#548E77"/>
<path fill-rule="evenodd" clip-rule="evenodd" d="M1637.58 162.537C1637.62 161.67 1638.58 160.986 1639.74 161.011C1640.89 161.035 1641.8 161.754 1641.77 162.623C1640.24 201.428 1702.11 237.227 1702.28 237.33C1703.2 237.864 1703.36 238.849 1702.65 239.533C1701.94 240.215 1700.62 240.338 1699.71 239.804C1699.53 239.699 1635.99 202.942 1637.58 162.537Z" fill="#548E77"/>
<path fill-rule="evenodd" clip-rule="evenodd" d="M1785.41 156.153C1786.04 155.42 1787.33 155.201 1788.31 155.668C1789.29 156.133 1789.58 157.106 1788.96 157.841C1769.69 180.568 1723.37 192.342 1723.24 192.374C1722.14 192.657 1720.95 192.219 1720.57 191.395C1720.2 190.572 1720.78 189.675 1721.88 189.392C1722.01 189.362 1766.94 177.936 1785.41 156.153Z" fill="#548E77"/>
<path fill-rule="evenodd" clip-rule="evenodd" d="M1820.5 248.715C1821.5 248.283 1822.79 248.545 1823.36 249.298C1823.94 250.054 1823.59 251.017 1822.58 251.447C1809.6 257.015 1790.01 259.995 1770.05 261.439C1735.8 263.919 1700.11 261.865 1695.22 260.673C1694.12 260.405 1693.51 259.518 1693.87 258.69C1694.23 257.865 1695.41 257.412 1696.52 257.681C1701.21 258.824 1735.95 260.753 1769.65 258.312C1789.09 256.905 1808.08 254.039 1820.5 248.715Z" fill="#548E77"/>
<path fill-rule="evenodd" clip-rule="evenodd" d="M1551.42 258.494C1551.37 257.625 1552.27 256.894 1553.42 256.855C1554.58 256.819 1555.55 257.49 1555.61 258.357C1555.82 261.945 1556.36 265.334 1557.17 268.533C1561.36 285.024 1573.01 296.224 1587.08 303.183C1601.19 310.159 1617.75 312.891 1631.72 312.414C1634.68 312.311 1637.52 312.063 1640.21 311.68C1669.78 307.453 1669.83 302.393 1669.83 302.376C1669.89 301.51 1670.88 300.844 1672.03 300.887C1673.19 300.93 1674.08 301.67 1674.02 302.536C1674.02 302.559 1673.83 310.077 1640.98 314.771C1638.12 315.18 1635.08 315.445 1631.9 315.553C1617.17 316.057 1599.69 313.173 1584.78 305.807C1569.84 298.42 1557.49 286.551 1553.05 269.113C1552.21 265.785 1551.65 262.248 1551.42 258.494Z" fill="#548E77"/>
<path fill-rule="evenodd" clip-rule="evenodd" d="M1677 289.382C1676.3 288.696 1676.46 287.709 1677.38 287.178C1678.3 286.648 1679.61 286.775 1680.32 287.463C1691.37 298.164 1704.89 305.985 1718.87 311.617C1737 318.926 1755.86 322.553 1771.05 324.003C1796.7 326.453 1796.48 326.303 1796.48 326.303C1796.9 325.492 1798.12 325.095 1799.2 325.412C1800.28 325.728 1800.81 326.641 1800.39 327.448C1800.38 327.456 1799.45 329.881 1770.52 327.118C1754.91 325.627 1735.52 321.9 1716.89 314.388C1702.44 308.565 1688.45 300.47 1677 289.382Z" fill="#548E77"/>
</g>
<path fill-rule="evenodd" clip-rule="evenodd" d="M1487.72 251.285C1488.02 247.685 1484.37 244.584 1479.57 244.363C1474.77 244.142 1470.63 246.88 1470.34 250.478C1470.04 254.079 1473.69 257.177 1478.49 257.401C1483.29 257.624 1487.43 254.886 1487.72 251.285Z" fill="#E6B595"/>
<path fill-rule="evenodd" clip-rule="evenodd" d="M1500.67 216.758C1501.31 208.99 1493.44 202.302 1483.07 201.822C1472.71 201.345 1463.79 207.252 1463.15 215.02C1462.51 222.788 1470.39 229.477 1480.75 229.956C1491.11 230.437 1500.03 224.529 1500.67 216.758Z" fill="#E6B595"/>
<path fill-rule="evenodd" clip-rule="evenodd" d="M1546.18 180.259C1546.47 176.658 1542.82 173.56 1538.02 173.339C1533.22 173.117 1529.09 175.856 1528.79 179.454C1528.49 183.054 1532.14 186.153 1536.94 186.374C1541.74 186.595 1545.88 183.859 1546.18 180.259Z" fill="#E6B595"/>
<path fill-rule="evenodd" clip-rule="evenodd" d="M224.511 82.8497C224.806 79.2493 221.154 76.1507 216.354 75.9295C211.552 75.7083 207.42 78.4465 207.125 82.0448C206.83 85.6452 210.482 88.7439 215.281 88.9651C220.083 89.1903 224.216 86.4501 224.511 82.8497Z" fill="#E6B595"/>
<path fill-rule="evenodd" clip-rule="evenodd" d="M237.464 48.3246C238.103 40.5545 230.225 33.8678 219.865 33.3885C209.501 32.9093 200.583 38.8157 199.944 46.5859C199.305 54.3539 207.182 61.0427 217.546 61.5219C227.903 62.0032 236.825 56.0927 237.464 48.3246Z" fill="#E6B595"/>
<path fill-rule="evenodd" clip-rule="evenodd" d="M403.072 211.943C403.367 208.343 399.715 205.244 394.916 205.023C390.114 204.802 385.981 207.54 385.683 211.139C385.385 214.737 389.04 217.838 393.84 218.059C398.639 218.28 402.774 215.544 403.072 211.943Z" fill="#E6B595"/>
<path fill-rule="evenodd" clip-rule="evenodd" d="M681.296 219.011C656.882 217.606 661.773 249.109 689.504 298.163H910.218C908.098 276.431 914.638 254.817 881.719 249.245C848.803 243.672 839.179 284.251 839.179 284.251C839.179 284.251 831.113 184.799 766.361 179.231C701.611 173.663 736.796 269.93 736.796 269.93C736.796 269.93 708.93 220.601 681.296 219.011Z" fill="#43745F"/>
<path fill-rule="evenodd" clip-rule="evenodd" d="M674.18 219.76C672.62 220.265 671.276 221.004 670.144 221.97C688.856 253.79 704.948 280.885 715.24 298.163H720.579C710.269 280.856 693.67 252.913 674.18 219.76ZM735.188 298.163C721.416 276.481 701.908 242.875 689.199 220.691C691.66 221.572 694.103 222.767 696.505 224.197C709.491 246.834 727.857 278.406 740.417 298.163H735.188ZM764.235 298.163H769.27C764.261 277.97 748.512 221.555 738.62 186.369C737.175 187.648 735.892 189.065 734.76 190.607C744.602 225.645 759.293 278.335 764.235 298.163ZM780.366 298.163C776.814 263.517 770.376 207.491 763.341 179.042C764.325 179.081 765.329 179.142 766.363 179.231C767.078 179.292 767.779 179.378 768.478 179.463C775.467 208.353 781.838 263.793 785.362 298.163H780.366ZM811.768 298.163H816.77C815.489 273.629 812.642 233.517 810.478 204.164C808.76 202.004 806.947 199.924 805.023 197.958C807.226 227.642 810.404 271.888 811.768 298.163ZM849.461 298.163H854.828C862.111 282.344 871.545 262.518 878.111 248.815C876.208 248.681 874.385 248.7 872.646 248.865C865.939 262.883 856.6 282.559 849.461 298.163ZM879.888 298.163H885.25C890.687 285.305 897.214 270.769 902.653 258.87C901.557 257.653 900.28 256.516 898.794 255.47C892.997 268.125 885.755 284.214 879.888 298.163Z" fill="#548E77"/>
<path fill-rule="evenodd" clip-rule="evenodd" d="M1221.23 219.011C1245.64 217.606 1240.75 249.109 1213.02 298.163H992.306C994.426 276.431 987.886 254.817 1020.8 249.245C1053.72 243.672 1063.34 284.251 1063.34 284.251C1063.34 284.251 1071.41 184.799 1136.16 179.231C1200.91 173.663 1165.73 269.93 1165.73 269.93C1165.73 269.93 1193.59 220.601 1221.23 219.011Z" fill="#43745F"/>
<path fill-rule="evenodd" clip-rule="evenodd" d="M1228.34 219.76C1229.9 220.265 1231.25 221.004 1232.38 221.97C1213.67 253.79 1197.58 280.885 1187.28 298.163H1181.95C1192.26 280.856 1208.85 252.913 1228.34 219.76ZM1167.34 298.163C1181.11 276.481 1200.62 242.875 1213.33 220.691C1210.86 221.572 1208.42 222.767 1206.02 224.197C1193.03 246.834 1174.67 278.406 1162.11 298.163H1167.34ZM1138.29 298.163H1133.25C1138.26 277.97 1154.01 221.555 1163.9 186.369C1165.35 187.648 1166.63 189.065 1167.76 190.607C1157.92 225.645 1143.23 278.335 1138.29 298.163ZM1122.16 298.163C1125.71 263.517 1132.15 207.491 1139.18 179.042C1138.2 179.081 1137.2 179.142 1136.16 179.231C1135.45 179.292 1134.74 179.378 1134.05 179.463C1127.06 208.353 1120.69 263.793 1117.16 298.163H1122.16ZM1090.76 298.163H1085.75C1087.03 273.629 1089.88 233.517 1092.05 204.164C1093.76 202.004 1095.58 199.924 1097.5 197.958C1095.3 227.642 1092.12 271.888 1090.76 298.163ZM1053.06 298.163H1047.7C1040.41 282.344 1030.98 262.518 1024.41 248.815C1026.32 248.681 1028.14 248.7 1029.88 248.865C1036.58 262.883 1045.92 282.559 1053.06 298.163ZM1022.64 298.163H1017.27C1011.84 285.305 1005.31 270.769 999.871 258.87C1000.97 257.653 1002.24 256.516 1003.73 255.47C1009.53 268.125 1016.77 284.214 1022.64 298.163Z" fill="#548E77"/>
</svg>
